<svg width="15" height="15" viewBox="0 0 15 15" fill="none" xmlns="http://www.w3.org/2000/svg">
    <g clip-path="url(#clip0_15_1432)">
        <path d="M0.9375 6.32813C0.9375 6.35123 0.937757 6.37427 0.938269 6.39725C0.937757 6.41905 0.9375 6.4409 0.9375 6.46281C0.9375 7.62352 1.6592 8.62557 2.7035 9.09349C3.0929 9.27416 3.52686 9.375 3.98438 9.375L4.00823 9.37491L4.03302 9.375H5.2179L7.2352 6.349C7.59536 5.80875 8.43748 6.06371 8.43749 6.71301L8.43752 8.90625H8.80632C9.11807 8.90625 9.35664 9.1139 9.43554 9.375H9.84375C12.044 9.375 14.0625 7.5 14.0625 5.15625C14.0625 4.84798 14.0228 4.55876 13.9479 4.28975C13.5539 2.37626 11.8598 0.9375 9.82969 0.9375C8.6274 0.9375 7.54298 1.44211 6.77665 2.2511C6.46071 2.01488 6.06857 1.875 5.64375 1.875C4.76467 1.875 4.0255 2.47396 3.81207 3.28604C2.20949 3.37538 0.9375 4.70321 0.9375 6.32813Z" fill="black" fill-opacity="0.75"/>
        <path d="M8.08323 9.36025C8.09284 9.36431 8.10285 9.36761 8.1132 9.37004C8.12702 9.37328 8.14142 9.37499 8.15622 9.37499H8.80628C8.9527 9.37499 9.04262 9.53532 8.96627 9.66026L6.90996 13.0251C6.81121 13.1867 6.56247 13.1167 6.56247 12.9274L6.56244 10.5C6.56244 10.3964 6.47849 10.3125 6.37494 10.3125H5.50657C5.35682 10.3125 5.26749 10.1456 5.35056 10.021L7.62518 6.609C7.66639 6.54718 7.72969 6.52181 7.79078 6.52552C7.79543 6.5258 7.80007 6.52625 7.80468 6.52687C7.89081 6.53835 7.96873 6.60743 7.96874 6.71301L7.96877 9.1875C7.96877 9.26514 8.01596 9.33177 8.08323 9.36025Z" fill="black" fill-opacity="0.75"/>
    </g>
    <defs>
        <clipPath id="clip0_15_1432">
            <rect width="15" height="15" fill="white"/>
        </clipPath>
    </defs>
</svg>