<svg width="15" height="13" viewBox="0 0 15 13" fill="none" xmlns="http://www.w3.org/2000/svg">
    <path d="M0.9375 6.27981L0.937505 6.2745L0.9375 6.26922C0.9375 4.59578 2.29219 3.2411 3.96562 3.2411C3.98854 3.2411 4.01139 3.24135 4.03417 3.24186C4.33546 2.59237 4.99334 2.14193 5.75643 2.14193C6.0854 2.14193 6.39482 2.22564 6.66454 2.37293C6.7146 2.31596 6.76652 2.26002 6.82031 2.20516C7.64562 1.35839 8.74039 0.935217 9.83593 0.937509C10.9013 0.935288 11.9688 1.33463 12.7923 2.13722C14.3376 3.6449 14.4738 6.04966 13.1962 7.72173C12.4823 8.72215 11.3128 9.375 9.98829 9.375H4.02801C3.03698 9.375 2.15867 8.90532 1.59975 8.17262C1.18643 7.65127 0.9375 6.99372 0.9375 6.27981Z" fill="black" fill-opacity="0.75"/>
</svg>
