<svg width="15" height="15" viewBox="0 0 15 15" fill="none" xmlns="http://www.w3.org/2000/svg">
    <g clip-path="url(#clip0_15_1322)">
        <path d="M5.66406 2.59896C6.13281 1.62865 7.51562 1.63333 7.975 2.60833C8.14843 2.97396 8.58906 3.11927 8.94531 2.92709L9.16562 2.8099C10.0234 2.34583 11.0359 3.08646 10.8531 4.0474L10.8062 4.29115C10.7312 4.68958 11.0031 5.06458 11.4016 5.12083L11.65 5.15365C12.6156 5.2849 13 6.48021 12.2875 7.14583L12.1047 7.31927C12.0251 7.39379 11.967 7.48193 11.9302 7.57643C12.5152 7.70345 13.0728 7.98886 13.5332 8.43312C14.7474 9.60576 14.8544 11.4761 13.8506 12.7766C13.2897 13.5547 12.3708 14.0625 11.3301 14.0625H6.64701C5.86834 14.0625 5.17824 13.6972 4.73909 13.1273C4.64946 13.0154 4.56967 12.8954 4.50111 12.7687L4.42656 12.8083C3.56874 13.2724 2.55624 12.5318 2.73906 11.5708L2.78593 11.3271C2.86093 10.9286 2.58906 10.5536 2.19062 10.4974L1.94218 10.4646C0.976557 10.3333 0.592181 9.13802 1.30468 8.4724L1.4875 8.29896C1.78281 8.0224 1.78281 7.55833 1.49218 7.27708L1.30937 7.10365C0.601557 6.42865 0.995306 5.23802 1.96562 5.11615L2.21406 5.08333C2.61249 5.03177 2.88906 4.65677 2.81875 4.25833L2.77187 4.01458C2.59843 3.05365 3.61562 2.3224 4.46874 2.79115L4.68906 2.91302C5.04531 3.10521 5.48593 2.96458 5.66406 2.59896ZM11.373 7.5036C11.2169 5.10269 9.22005 3.20365 6.77968 3.20365C4.23744 3.20365 2.17655 5.26454 2.17655 7.80677C2.17655 9.40121 2.98721 10.8063 4.21886 11.6324C4.23117 10.3387 5.29293 9.29525 6.60273 9.29525C6.62625 9.29525 6.6497 9.29559 6.67306 9.29626C6.88657 8.7916 7.38631 8.4375 7.96875 8.4375C8.23842 8.4375 8.49036 8.51341 8.70438 8.64503C8.75087 8.5915 8.79946 8.5391 8.85016 8.48792C9.53725 7.79008 10.4616 7.46141 11.373 7.5036Z" fill="black" fill-opacity="0.75"/>
    </g>
    <defs>
        <clipPath id="clip0_15_1322">
            <rect width="15" height="15" fill="white"/>
        </clipPath>
    </defs>
</svg>
