<svg width="15" height="13" viewBox="0 0 15 13" fill="none" xmlns="http://www.w3.org/2000/svg">
    <path d="M0.9375 6.27981L0.937505 6.2745L0.9375 6.26922C0.9375 4.59578 2.29219 3.2411 3.96562 3.2411C3.98854 3.2411 4.01139 3.24135 4.03417 3.24186C4.33546 2.59237 4.99334 2.14193 5.75643 2.14193C6.0854 2.14193 6.39482 2.22564 6.66454 2.37293C6.7146 2.31596 6.76652 2.26002 6.82031 2.20516C7.64562 1.35839 8.74039 0.935217 9.83593 0.937509C10.9013 0.935288 11.9688 1.33463 12.7923 2.13722C14.3376 3.6449 14.4738 6.04966 13.1962 7.72173C12.4823 8.72215 11.3128 9.375 9.98829 9.375H4.02801C3.03698 9.375 2.15867 8.90532 1.59975 8.17262C1.18643 7.65127 0.9375 6.99372 0.9375 6.27981Z" fill="black" fill-opacity="0.75"/>
    <path d="M2.96184 12.3083L4.08279 10.7748C4.35939 10.3963 4.27689 9.86742 3.89839 9.59082C3.51989 9.31422 2.99096 9.39672 2.71436 9.77522L1.59342 11.3086C1.31682 11.6871 1.39931 12.2161 1.77781 12.4927C2.15631 12.7693 2.68525 12.6868 2.96184 12.3083Z" fill="black" fill-opacity="0.75"/>
    <path d="M7.1791 10.7748L6.05816 12.3083C5.78156 12.6868 5.25263 12.7693 4.87413 12.4927C4.49563 12.2161 4.41313 11.6871 4.68973 11.3086L5.81067 9.77522C6.08727 9.39672 6.6162 9.31422 6.9947 9.59082C7.3732 9.86742 7.4557 10.3963 7.1791 10.7748Z" fill="black" fill-opacity="0.75"/>
    <path d="M9.15447 12.3083L10.2754 10.7748C10.552 10.3963 10.4695 9.86742 10.091 9.59082C9.71252 9.31422 9.18358 9.39672 8.90699 9.77522L7.78604 11.3086C7.50945 11.6871 7.59194 12.2161 7.97044 12.4927C8.34894 12.7693 8.87787 12.6868 9.15447 12.3083Z" fill="black" fill-opacity="0.75"/>
</svg>