<svg width="15" height="15" viewBox="0 0 15 15" fill="none" xmlns="http://www.w3.org/2000/svg">
    <g clip-path="url(#clip0_15_1431)">
        <path d="M6.83202 2.20768C8.45712 0.54031 11.1249 0.512129 12.7923 2.13722C14.3376 3.6449 14.4738 6.04966 13.1962 7.72173C12.4823 8.72215 11.3128 9.375 9.98829 9.375H4.02801C3.03698 9.375 2.15867 8.90532 1.59975 8.17262C1.18643 7.65127 0.9375 6.99372 0.9375 6.27981C0.9375 4.60305 2.29488 3.24567 3.97165 3.24567C3.98912 3.24567 4.00656 3.24582 4.02396 3.24611C4.32277 2.59317 4.98184 2.13954 5.74686 2.13954C6.0828 2.13954 6.39831 2.22701 6.67186 2.38043C6.72328 2.32174 6.77666 2.26413 6.83202 2.20768Z" fill="black" fill-opacity="0.75"/>
        <path d="M5.08525 10.7955C5.22705 10.5712 5.5542 10.5712 5.696 10.7955L5.84665 11.0339C5.92043 11.1506 6.05426 11.215 6.19149 11.1999L6.47174 11.1691C6.73552 11.1401 6.93949 11.3959 6.85253 11.6466L6.76015 11.913C6.71491 12.0434 6.74796 12.1883 6.84531 12.2861L7.04413 12.4861C7.23125 12.6742 7.15846 12.9932 6.90823 13.0815L6.64236 13.1753C6.51218 13.2213 6.41956 13.3374 6.40373 13.4746L6.37139 13.7546C6.34096 14.0183 6.04621 14.1602 5.82113 14.0196L5.58199 13.8703C5.46489 13.7972 5.31636 13.7972 5.19926 13.8703L4.96012 14.0196C4.73504 14.1602 4.44029 14.0183 4.40986 13.7546L4.37752 13.4746C4.36169 13.3374 4.26907 13.2213 4.13889 13.1753L3.87302 13.0815C3.62279 12.9932 3.55 12.6742 3.73712 12.4861L3.93594 12.2861C4.03329 12.1883 4.06634 12.0434 4.0211 11.913L3.92872 11.6466C3.84176 11.3959 4.04573 11.1401 4.30951 11.1691L4.58976 11.1999C4.72699 11.215 4.86082 11.1506 4.9346 11.0339L5.08525 10.7955Z" fill="black" fill-opacity="0.75"/>
        <path d="M9.93017 9.68703C9.87887 9.49135 9.64117 9.4159 9.48641 9.54618C9.40589 9.61395 9.29379 9.62992 9.19755 9.58731C9.01258 9.50541 8.80538 9.64421 8.81074 9.84643C8.81353 9.95164 8.75612 10.0492 8.6628 10.0979C8.48344 10.1915 8.46278 10.44 8.62422 10.5619C8.70822 10.6253 8.74873 10.7311 8.7286 10.8344C8.68992 11.0329 8.87135 11.204 9.0673 11.1538C9.16926 11.1277 9.27718 11.1619 9.3454 11.2421C9.47652 11.3961 9.72342 11.361 9.80633 11.1764C9.84947 11.0804 9.94355 11.0174 10.0487 11.0141C10.2509 11.0076 10.3774 10.7926 10.2848 10.6128C10.2366 10.5192 10.246 10.4063 10.309 10.322C10.43 10.1599 10.3408 9.927 10.1424 9.88722C10.0392 9.86653 9.95686 9.78884 9.93017 9.68703Z" fill="black" fill-opacity="0.75"/>
    </g>
    <defs>
        <clipPath id="clip0_15_1431">
            <rect width="15" height="15" fill="white"/>
        </clipPath>
    </defs>
</svg>
