<svg width="441" height="441" viewBox="0 0 441 441" fill="none" xmlns="http://www.w3.org/2000/svg">
    <path fill-rule="evenodd" clip-rule="evenodd" d="M260.602 18.6713C238.899 -4.02912 204.981 -8.32589 180.034 18.6713L168.324 33.0336C162.628 38.9988 154.451 42.3336 144.014 38.4178L133.185 35.253C99.7274 25.4742 67.9174 44.7055 65.1509 78.2204L63.4465 98.8682C62.7444 107.374 54.5843 114.119 46.1365 116.734L38.4825 119.103C3.77916 129.846 -12.4127 165.681 11.0064 197.741L19.2796 208.999C24.0655 215.823 24.2773 224.703 19.8219 231.731L8.72957 246.478C-8.26293 273.282 1.6494 305.382 31.244 318.64L50.9242 325.142C57.3111 328.003 61.8761 333.644 63.191 340.299L66.4305 372.276C70.7958 394.37 98.069 411.489 121.231 408.336L149.286 400.961C156.614 398.302 162.738 402.162 167.595 406.684L186.143 428.282C203.13 444.098 236.801 448.595 261.748 421.552L271.803 408.336C276.258 401.606 284.582 399.471 291.277 400.382L319.151 407.541C342.552 410.726 371.718 396.466 376.172 364.895L377.445 341.89C378.734 334.816 381.435 330.065 388.328 327.297L406.63 319.948C439.351 306.81 452.413 269.204 429.248 241.794L422.884 233.228C417.203 225.789 416.03 216.051 421.739 208.632L428.103 200.556C450.504 171.799 442.819 137.537 412.065 123.097L390.805 114.557C383.91 111.319 377.234 106.338 376.554 98.9905V85.5301C376.554 49.7987 347.407 26.7936 315.333 33.4041L291.802 40.1373C285.053 40.6836 278.421 38.1978 273.838 33.4041L260.602 18.6713ZM395.522 220.1C395.522 313.031 317.162 388.367 220.499 388.367C123.837 388.367 45.4772 313.031 45.4772 220.1C45.4772 127.168 123.837 51.8321 220.499 51.8321C317.162 51.8321 395.522 127.168 395.522 220.1Z" fill="black"/>
</svg>
