<svg width="388" height="348" viewBox="0 0 388 348" fill="none" xmlns="http://www.w3.org/2000/svg">
    <path d="M143.915 143.034C174.844 143.034 199.917 117.961 199.917 87.0323C199.917 56.1034 174.844 31.0306 143.915 31.0306C112.986 31.0306 87.9133 56.1034 87.9133 87.0323C87.9133 117.961 112.986 143.034 143.915 143.034Z" fill="url(#paint0_radial_377_205)"/>
    <path d="M143.915 143.034C174.844 143.034 199.917 117.961 199.917 87.0323C199.917 56.1034 174.844 31.0306 143.915 31.0306C112.986 31.0306 87.9133 56.1034 87.9133 87.0323C87.9133 117.961 112.986 143.034 143.915 143.034Z" fill="url(#paint1_radial_377_205)"/>
    <g filter="url(#filter0_i_377_205)">
        <path d="M349.872 35.4077C300.662 -12.5541 221.927 -11.7224 173.966 37.487C160.051 51.6766 150.382 68.3307 144.548 86.0885C144.495 86.2509 144.298 86.3136 144.16 86.2121C138.829 82.2802 132.966 78.8885 126.835 76.3C115.469 71.0325 102.855 68.1216 89.5472 68.1216C40.0606 68.1216 0 108.182 0 157.669C0 178.739 7.34675 198.145 19.5451 213.532C36.0407 235.156 61.9622 249.018 91.2106 249.018C126.42 249.018 227.611 249.018 267.117 249.018C306.207 249.018 340.723 229.75 361.793 200.224C399.497 150.876 395.338 79.9041 349.872 35.4077Z" fill="#D3E9FF"/>
    </g>
    <g filter="url(#filter1_ii_377_205)">
        <path d="M349.872 35.4077C300.662 -12.5541 221.927 -11.7224 173.966 37.487C160.051 51.6766 150.382 68.3307 144.548 86.0885C144.495 86.2509 144.298 86.3136 144.16 86.2121C138.829 82.2802 132.966 78.8885 126.835 76.3C115.469 71.0325 102.855 68.1216 89.5472 68.1216C40.0606 68.1216 0 108.182 0 157.669C0 178.739 7.34675 198.145 19.5451 213.532C36.0407 235.156 61.9622 249.018 91.2106 249.018C126.42 249.018 227.611 249.018 267.117 249.018C306.207 249.018 340.723 229.75 361.793 200.224C399.497 150.876 395.338 79.9041 349.872 35.4077Z" fill="#D3E9FF"/>
        <path d="M349.872 35.4077C300.662 -12.5541 221.927 -11.7224 173.966 37.487C160.051 51.6766 150.382 68.3307 144.548 86.0885C144.495 86.2509 144.298 86.3136 144.16 86.2121C138.829 82.2802 132.966 78.8885 126.835 76.3C115.469 71.0325 102.855 68.1216 89.5472 68.1216C40.0606 68.1216 0 108.182 0 157.669C0 178.739 7.34675 198.145 19.5451 213.532C36.0407 235.156 61.9622 249.018 91.2106 249.018C126.42 249.018 227.611 249.018 267.117 249.018C306.207 249.018 340.723 229.75 361.793 200.224C399.497 150.876 395.338 79.9041 349.872 35.4077Z" fill="url(#paint2_radial_377_205)"/>
        <path d="M349.872 35.4077C300.662 -12.5541 221.927 -11.7224 173.966 37.487C160.051 51.6766 150.382 68.3307 144.548 86.0885C144.495 86.2509 144.298 86.3136 144.16 86.2121C138.829 82.2802 132.966 78.8885 126.835 76.3C115.469 71.0325 102.855 68.1216 89.5472 68.1216C40.0606 68.1216 0 108.182 0 157.669C0 178.739 7.34675 198.145 19.5451 213.532C36.0407 235.156 61.9622 249.018 91.2106 249.018C126.42 249.018 227.611 249.018 267.117 249.018C306.207 249.018 340.723 229.75 361.793 200.224C399.497 150.876 395.338 79.9041 349.872 35.4077Z" fill="url(#paint3_radial_377_205)"/>
        <path d="M349.872 35.4077C300.662 -12.5541 221.927 -11.7224 173.966 37.487C160.051 51.6766 150.382 68.3307 144.548 86.0885C144.495 86.2509 144.298 86.3136 144.16 86.2121C138.829 82.2802 132.966 78.8885 126.835 76.3C115.469 71.0325 102.855 68.1216 89.5472 68.1216C40.0606 68.1216 0 108.182 0 157.669C0 178.739 7.34675 198.145 19.5451 213.532C36.0407 235.156 61.9622 249.018 91.2106 249.018C126.42 249.018 227.611 249.018 267.117 249.018C306.207 249.018 340.723 229.75 361.793 200.224C399.497 150.876 395.338 79.9041 349.872 35.4077Z" fill="url(#paint4_radial_377_205)"/>
        <path d="M349.872 35.4077C300.662 -12.5541 221.927 -11.7224 173.966 37.487C160.051 51.6766 150.382 68.3307 144.548 86.0885C144.495 86.2509 144.298 86.3136 144.16 86.2121C138.829 82.2802 132.966 78.8885 126.835 76.3C115.469 71.0325 102.855 68.1216 89.5472 68.1216C40.0606 68.1216 0 108.182 0 157.669C0 178.739 7.34675 198.145 19.5451 213.532C36.0407 235.156 61.9622 249.018 91.2106 249.018C126.42 249.018 227.611 249.018 267.117 249.018C306.207 249.018 340.723 229.75 361.793 200.224C399.497 150.876 395.338 79.9041 349.872 35.4077Z" fill="url(#paint5_radial_377_205)"/>
    </g>
    <defs>
        <filter id="filter0_i_377_205" x="0" y="0" width="387.313" height="249.018" filterUnits="userSpaceOnUse" color-interpolation-filters="sRGB">
            <feFlood flood-opacity="0" result="BackgroundImageFix"/>
            <feBlend mode="normal" in="SourceGraphic" in2="BackgroundImageFix" result="shape"/>
            <feColorMatrix in="SourceAlpha" type="matrix" values="0 0 0 0 0 0 0 0 0 0 0 0 0 0 0 0 0 0 127 0" result="hardAlpha"/>
            <feOffset/>
            <feGaussianBlur stdDeviation="2"/>
            <feComposite in2="hardAlpha" operator="arithmetic" k2="-1" k3="1"/>
            <feColorMatrix type="matrix" values="0 0 0 0 0.701961 0 0 0 0 0.698039 0 0 0 0 0.992157 0 0 0 1 0"/>
            <feBlend mode="normal" in2="shape" result="effect1_innerShadow_377_205"/>
        </filter>
        <filter id="filter1_ii_377_205" x="0" y="0" width="387.313" height="249.018" filterUnits="userSpaceOnUse" color-interpolation-filters="sRGB">
            <feFlood flood-opacity="0" result="BackgroundImageFix"/>
            <feBlend mode="normal" in="SourceGraphic" in2="BackgroundImageFix" result="shape"/>
            <feColorMatrix in="SourceAlpha" type="matrix" values="0 0 0 0 0 0 0 0 0 0 0 0 0 0 0 0 0 0 127 0" result="hardAlpha"/>
            <feOffset/>
            <feGaussianBlur stdDeviation="3.5"/>
            <feComposite in2="hardAlpha" operator="arithmetic" k2="-1" k3="1"/>
            <feColorMatrix type="matrix" values="0 0 0 0 0.698039 0 0 0 0 0.845098 0 0 0 0 0.992157 0 0 0 1 0"/>
            <feBlend mode="normal" in2="shape" result="effect1_innerShadow_377_205"/>
            <feColorMatrix in="SourceAlpha" type="matrix" values="0 0 0 0 0 0 0 0 0 0 0 0 0 0 0 0 0 0 127 0" result="hardAlpha"/>
            <feOffset/>
            <feGaussianBlur stdDeviation="1.25"/>
            <feComposite in2="hardAlpha" operator="arithmetic" k2="-1" k3="1"/>
            <feColorMatrix type="matrix" values="0 0 0 0 0.698039 0 0 0 0 0.845098 0 0 0 0 0.992157 0 0 0 1 0"/>
            <feBlend mode="normal" in2="effect1_innerShadow_377_205" result="effect2_innerShadow_377_205"/>
        </filter>
        <radialGradient id="paint0_radial_377_205" cx="0" cy="0" r="1" gradientUnits="userSpaceOnUse" gradientTransform="translate(140.089 77.4658) rotate(-110.468) scale(49.5642 48.1397)">
            <stop offset="0.30655" stop-color="#CDE6FF"/>
            <stop offset="1" stop-color="#B6D8FA"/>
        </radialGradient>
        <radialGradient id="paint1_radial_377_205" cx="0" cy="0" r="1" gradientUnits="userSpaceOnUse" gradientTransform="translate(161.105 65.0139) rotate(-148.811) scale(20.0949 66.8224)">
            <stop offset="0.401187" stop-color="#B7DBFF"/>
            <stop offset="1" stop-color="#B7DBFF" stop-opacity="0"/>
        </radialGradient>
        <radialGradient id="paint2_radial_377_205" cx="0" cy="0" r="1" gradientUnits="userSpaceOnUse" gradientTransform="translate(199.844 156.559) rotate(-106.955) scale(180.093 101.184)">
            <stop stop-color="#CCE6FF"/>
            <stop offset="1" stop-color="#CCE6FF" stop-opacity="0"/>
        </radialGradient>
        <radialGradient id="paint3_radial_377_205" cx="0" cy="0" r="1" gradientUnits="userSpaceOnUse" gradientTransform="translate(364.756 71.4775) rotate(147.006) scale(167.817 187.453)">
            <stop offset="0.189911" stop-color="#F0F8FF"/>
            <stop offset="1" stop-color="#F0F8FF" stop-opacity="0"/>
        </radialGradient>
        <radialGradient id="paint4_radial_377_205" cx="0" cy="0" r="1" gradientUnits="userSpaceOnUse" gradientTransform="translate(97.9559 116.644) rotate(147.319) scale(132.283 161.197)">
            <stop stop-color="#F0F8FF"/>
            <stop offset="0.695905" stop-color="#F0F8FF" stop-opacity="0"/>
        </radialGradient>
        <radialGradient id="paint5_radial_377_205" cx="0" cy="0" r="1" gradientUnits="userSpaceOnUse" gradientTransform="translate(128.417 60.9735) rotate(71.9061) scale(111.609 41.6085)">
            <stop stop-color="#F0F8FF"/>
            <stop offset="1" stop-color="#F0F8FF" stop-opacity="0"/>
        </radialGradient>
    </defs>
</svg>
