<svg width="393" height="393" viewBox="0 0 393 393" fill="none" xmlns="http://www.w3.org/2000/svg">
    <path d="M148.915 143.034C179.844 143.034 204.917 117.961 204.917 87.0322C204.917 56.1033 179.844 31.0306 148.915 31.0306C117.986 31.0306 92.9133 56.1033 92.9133 87.0322C92.9133 117.961 117.986 143.034 148.915 143.034Z" fill="url(#paint0_radial_106_603)"/>
    <path d="M148.915 143.034C179.844 143.034 204.917 117.961 204.917 87.0322C204.917 56.1033 179.844 31.0306 148.915 31.0306C117.986 31.0306 92.9133 56.1033 92.9133 87.0322C92.9133 117.961 117.986 143.034 148.915 143.034Z" fill="url(#paint1_radial_106_603)"/>
    <g filter="url(#filter0_dii_106_603)">
        <path d="M99.2455 316.331L66.0606 361.727C57.8721 372.932 42.2134 375.374 31.008 367.186C19.8027 358.997 17.3605 343.339 25.549 332.134L58.7339 286.738C66.9224 275.532 82.5811 273.09 93.7864 281.279C104.992 289.323 107.434 305.126 99.2455 316.331Z" fill="#29A4FD"/>
    </g>
    <g filter="url(#filter1_dii_106_603)">
        <path d="M190.125 316.331L156.94 361.727C148.752 372.932 133.093 375.374 121.888 367.186C110.683 358.997 108.24 343.339 116.429 332.134L149.614 286.738C157.802 275.532 173.461 273.09 184.666 281.279C195.872 289.323 198.314 305.126 190.125 316.331Z" fill="#29A4FD"/>
    </g>
    <g filter="url(#filter2_dii_106_603)">
        <path d="M281.005 316.331L247.82 361.727C239.632 372.932 223.973 375.374 212.768 367.186C201.562 358.997 199.12 343.339 207.309 332.134L240.493 286.738C248.682 275.532 264.341 273.09 275.546 281.279C286.751 289.323 289.194 305.126 281.005 316.331Z" fill="#29A4FD"/>
    </g>
    <g filter="url(#filter3_i_106_603)">
        <path d="M354.872 35.4077C305.662 -12.5541 226.927 -11.7224 178.966 37.487C165.051 51.6766 155.382 68.3307 149.548 86.0885C149.495 86.2509 149.298 86.3136 149.16 86.2121C143.829 82.2802 137.966 78.8885 131.835 76.3C120.469 71.0325 107.855 68.1216 94.5472 68.1216C45.0606 68.1216 5 108.182 5 157.669C5 178.739 12.3468 198.145 24.5451 213.532C41.0407 235.156 66.9622 249.018 96.2106 249.018C131.42 249.018 232.611 249.018 272.117 249.018C311.207 249.018 345.723 229.75 366.793 200.224C404.497 150.876 400.338 79.9041 354.872 35.4077Z" fill="#D3E9FF"/>
    </g>
    <g filter="url(#filter4_ii_106_603)">
        <path d="M354.872 35.4077C305.662 -12.5541 226.927 -11.7224 178.966 37.487C165.051 51.6766 155.382 68.3307 149.548 86.0885C149.495 86.2509 149.298 86.3136 149.16 86.2121C143.829 82.2802 137.966 78.8885 131.835 76.3C120.469 71.0325 107.855 68.1216 94.5472 68.1216C45.0606 68.1216 5 108.182 5 157.669C5 178.739 12.3468 198.145 24.5451 213.532C41.0407 235.156 66.9622 249.018 96.2106 249.018C131.42 249.018 232.611 249.018 272.117 249.018C311.207 249.018 345.723 229.75 366.793 200.224C404.497 150.876 400.338 79.9041 354.872 35.4077Z" fill="#D3E9FF"/>
        <path d="M354.872 35.4077C305.662 -12.5541 226.927 -11.7224 178.966 37.487C165.051 51.6766 155.382 68.3307 149.548 86.0885C149.495 86.2509 149.298 86.3136 149.16 86.2121C143.829 82.2802 137.966 78.8885 131.835 76.3C120.469 71.0325 107.855 68.1216 94.5472 68.1216C45.0606 68.1216 5 108.182 5 157.669C5 178.739 12.3468 198.145 24.5451 213.532C41.0407 235.156 66.9622 249.018 96.2106 249.018C131.42 249.018 232.611 249.018 272.117 249.018C311.207 249.018 345.723 229.75 366.793 200.224C404.497 150.876 400.338 79.9041 354.872 35.4077Z" fill="url(#paint2_radial_106_603)"/>
        <path d="M354.872 35.4077C305.662 -12.5541 226.927 -11.7224 178.966 37.487C165.051 51.6766 155.382 68.3307 149.548 86.0885C149.495 86.2509 149.298 86.3136 149.16 86.2121C143.829 82.2802 137.966 78.8885 131.835 76.3C120.469 71.0325 107.855 68.1216 94.5472 68.1216C45.0606 68.1216 5 108.182 5 157.669C5 178.739 12.3468 198.145 24.5451 213.532C41.0407 235.156 66.9622 249.018 96.2106 249.018C131.42 249.018 232.611 249.018 272.117 249.018C311.207 249.018 345.723 229.75 366.793 200.224C404.497 150.876 400.338 79.9041 354.872 35.4077Z" fill="url(#paint3_radial_106_603)"/>
        <path d="M354.872 35.4077C305.662 -12.5541 226.927 -11.7224 178.966 37.487C165.051 51.6766 155.382 68.3307 149.548 86.0885C149.495 86.2509 149.298 86.3136 149.16 86.2121C143.829 82.2802 137.966 78.8885 131.835 76.3C120.469 71.0325 107.855 68.1216 94.5472 68.1216C45.0606 68.1216 5 108.182 5 157.669C5 178.739 12.3468 198.145 24.5451 213.532C41.0407 235.156 66.9622 249.018 96.2106 249.018C131.42 249.018 232.611 249.018 272.117 249.018C311.207 249.018 345.723 229.75 366.793 200.224C404.497 150.876 400.338 79.9041 354.872 35.4077Z" fill="url(#paint4_radial_106_603)"/>
        <path d="M354.872 35.4077C305.662 -12.5541 226.927 -11.7224 178.966 37.487C165.051 51.6766 155.382 68.3307 149.548 86.0885C149.495 86.2509 149.298 86.3136 149.16 86.2121C143.829 82.2802 137.966 78.8885 131.835 76.3C120.469 71.0325 107.855 68.1216 94.5472 68.1216C45.0606 68.1216 5 108.182 5 157.669C5 178.739 12.3468 198.145 24.5451 213.532C41.0407 235.156 66.9622 249.018 96.2106 249.018C131.42 249.018 232.611 249.018 272.117 249.018C311.207 249.018 345.723 229.75 366.793 200.224C404.497 150.876 400.338 79.9041 354.872 35.4077Z" fill="url(#paint5_radial_106_603)"/>
    </g>
    <defs>
        <filter id="filter0_dii_106_603" x="0.705994" y="256.436" width="123.383" height="135.593" filterUnits="userSpaceOnUse" color-interpolation-filters="sRGB">
            <feFlood flood-opacity="0" result="BackgroundImageFix"/>
            <feColorMatrix in="SourceAlpha" type="matrix" values="0 0 0 0 0 0 0 0 0 0 0 0 0 0 0 0 0 0 127 0" result="hardAlpha"/>
            <feOffset/>
            <feGaussianBlur stdDeviation="10"/>
            <feComposite in2="hardAlpha" operator="out"/>
            <feColorMatrix type="matrix" values="0 0 0 0 0.372222 0 0 0 0 0.736452 0 0 0 0 1 0 0 0 0.25 0"/>
            <feBlend mode="normal" in2="BackgroundImageFix" result="effect1_dropShadow_106_603"/>
            <feBlend mode="normal" in="SourceGraphic" in2="effect1_dropShadow_106_603" result="shape"/>
            <feColorMatrix in="SourceAlpha" type="matrix" values="0 0 0 0 0 0 0 0 0 0 0 0 0 0 0 0 0 0 127 0" result="hardAlpha"/>
            <feOffset dx="4" dy="4"/>
            <feGaussianBlur stdDeviation="6"/>
            <feComposite in2="hardAlpha" operator="arithmetic" k2="-1" k3="1"/>
            <feColorMatrix type="matrix" values="0 0 0 0 1 0 0 0 0 1 0 0 0 0 1 0 0 0 0.55 0"/>
            <feBlend mode="overlay" in2="shape" result="effect2_innerShadow_106_603"/>
            <feColorMatrix in="SourceAlpha" type="matrix" values="0 0 0 0 0 0 0 0 0 0 0 0 0 0 0 0 0 0 127 0" result="hardAlpha"/>
            <feOffset dx="-4" dy="-4"/>
            <feGaussianBlur stdDeviation="10"/>
            <feComposite in2="hardAlpha" operator="arithmetic" k2="-1" k3="1"/>
            <feColorMatrix type="matrix" values="0 0 0 0 0 0 0 0 0 0 0 0 0 0 0 0 0 0 0.25 0"/>
            <feBlend mode="overlay" in2="effect2_innerShadow_106_603" result="effect3_innerShadow_106_603"/>
        </filter>
        <filter id="filter1_dii_106_603" x="91.5858" y="256.436" width="123.383" height="135.593" filterUnits="userSpaceOnUse" color-interpolation-filters="sRGB">
            <feFlood flood-opacity="0" result="BackgroundImageFix"/>
            <feColorMatrix in="SourceAlpha" type="matrix" values="0 0 0 0 0 0 0 0 0 0 0 0 0 0 0 0 0 0 127 0" result="hardAlpha"/>
            <feOffset/>
            <feGaussianBlur stdDeviation="10"/>
            <feComposite in2="hardAlpha" operator="out"/>
            <feColorMatrix type="matrix" values="0 0 0 0 0.372222 0 0 0 0 0.736452 0 0 0 0 1 0 0 0 0.25 0"/>
            <feBlend mode="normal" in2="BackgroundImageFix" result="effect1_dropShadow_106_603"/>
            <feBlend mode="normal" in="SourceGraphic" in2="effect1_dropShadow_106_603" result="shape"/>
            <feColorMatrix in="SourceAlpha" type="matrix" values="0 0 0 0 0 0 0 0 0 0 0 0 0 0 0 0 0 0 127 0" result="hardAlpha"/>
            <feOffset dx="4" dy="4"/>
            <feGaussianBlur stdDeviation="6"/>
            <feComposite in2="hardAlpha" operator="arithmetic" k2="-1" k3="1"/>
            <feColorMatrix type="matrix" values="0 0 0 0 1 0 0 0 0 1 0 0 0 0 1 0 0 0 0.55 0"/>
            <feBlend mode="overlay" in2="shape" result="effect2_innerShadow_106_603"/>
            <feColorMatrix in="SourceAlpha" type="matrix" values="0 0 0 0 0 0 0 0 0 0 0 0 0 0 0 0 0 0 127 0" result="hardAlpha"/>
            <feOffset dx="-4" dy="-4"/>
            <feGaussianBlur stdDeviation="10"/>
            <feComposite in2="hardAlpha" operator="arithmetic" k2="-1" k3="1"/>
            <feColorMatrix type="matrix" values="0 0 0 0 0 0 0 0 0 0 0 0 0 0 0 0 0 0 0.25 0"/>
            <feBlend mode="overlay" in2="effect2_innerShadow_106_603" result="effect3_innerShadow_106_603"/>
        </filter>
        <filter id="filter2_dii_106_603" x="182.466" y="256.436" width="123.383" height="135.593" filterUnits="userSpaceOnUse" color-interpolation-filters="sRGB">
            <feFlood flood-opacity="0" result="BackgroundImageFix"/>
            <feColorMatrix in="SourceAlpha" type="matrix" values="0 0 0 0 0 0 0 0 0 0 0 0 0 0 0 0 0 0 127 0" result="hardAlpha"/>
            <feOffset/>
            <feGaussianBlur stdDeviation="10"/>
            <feComposite in2="hardAlpha" operator="out"/>
            <feColorMatrix type="matrix" values="0 0 0 0 0.372222 0 0 0 0 0.736452 0 0 0 0 1 0 0 0 0.25 0"/>
            <feBlend mode="normal" in2="BackgroundImageFix" result="effect1_dropShadow_106_603"/>
            <feBlend mode="normal" in="SourceGraphic" in2="effect1_dropShadow_106_603" result="shape"/>
            <feColorMatrix in="SourceAlpha" type="matrix" values="0 0 0 0 0 0 0 0 0 0 0 0 0 0 0 0 0 0 127 0" result="hardAlpha"/>
            <feOffset dx="4" dy="4"/>
            <feGaussianBlur stdDeviation="6"/>
            <feComposite in2="hardAlpha" operator="arithmetic" k2="-1" k3="1"/>
            <feColorMatrix type="matrix" values="0 0 0 0 1 0 0 0 0 1 0 0 0 0 1 0 0 0 0.55 0"/>
            <feBlend mode="overlay" in2="shape" result="effect2_innerShadow_106_603"/>
            <feColorMatrix in="SourceAlpha" type="matrix" values="0 0 0 0 0 0 0 0 0 0 0 0 0 0 0 0 0 0 127 0" result="hardAlpha"/>
            <feOffset dx="-4" dy="-4"/>
            <feGaussianBlur stdDeviation="10"/>
            <feComposite in2="hardAlpha" operator="arithmetic" k2="-1" k3="1"/>
            <feColorMatrix type="matrix" values="0 0 0 0 0 0 0 0 0 0 0 0 0 0 0 0 0 0 0.25 0"/>
            <feBlend mode="overlay" in2="effect2_innerShadow_106_603" result="effect3_innerShadow_106_603"/>
        </filter>
        <filter id="filter3_i_106_603" x="5" y="0" width="387.313" height="249.018" filterUnits="userSpaceOnUse" color-interpolation-filters="sRGB">
            <feFlood flood-opacity="0" result="BackgroundImageFix"/>
            <feBlend mode="normal" in="SourceGraphic" in2="BackgroundImageFix" result="shape"/>
            <feColorMatrix in="SourceAlpha" type="matrix" values="0 0 0 0 0 0 0 0 0 0 0 0 0 0 0 0 0 0 127 0" result="hardAlpha"/>
            <feOffset/>
            <feGaussianBlur stdDeviation="2"/>
            <feComposite in2="hardAlpha" operator="arithmetic" k2="-1" k3="1"/>
            <feColorMatrix type="matrix" values="0 0 0 0 0.701961 0 0 0 0 0.698039 0 0 0 0 0.992157 0 0 0 1 0"/>
            <feBlend mode="normal" in2="shape" result="effect1_innerShadow_106_603"/>
        </filter>
        <filter id="filter4_ii_106_603" x="5" y="0" width="387.313" height="249.018" filterUnits="userSpaceOnUse" color-interpolation-filters="sRGB">
            <feFlood flood-opacity="0" result="BackgroundImageFix"/>
            <feBlend mode="normal" in="SourceGraphic" in2="BackgroundImageFix" result="shape"/>
            <feColorMatrix in="SourceAlpha" type="matrix" values="0 0 0 0 0 0 0 0 0 0 0 0 0 0 0 0 0 0 127 0" result="hardAlpha"/>
            <feOffset/>
            <feGaussianBlur stdDeviation="3.5"/>
            <feComposite in2="hardAlpha" operator="arithmetic" k2="-1" k3="1"/>
            <feColorMatrix type="matrix" values="0 0 0 0 0.698039 0 0 0 0 0.845098 0 0 0 0 0.992157 0 0 0 1 0"/>
            <feBlend mode="normal" in2="shape" result="effect1_innerShadow_106_603"/>
            <feColorMatrix in="SourceAlpha" type="matrix" values="0 0 0 0 0 0 0 0 0 0 0 0 0 0 0 0 0 0 127 0" result="hardAlpha"/>
            <feOffset/>
            <feGaussianBlur stdDeviation="1.25"/>
            <feComposite in2="hardAlpha" operator="arithmetic" k2="-1" k3="1"/>
            <feColorMatrix type="matrix" values="0 0 0 0 0.698039 0 0 0 0 0.845098 0 0 0 0 0.992157 0 0 0 1 0"/>
            <feBlend mode="normal" in2="effect1_innerShadow_106_603" result="effect2_innerShadow_106_603"/>
        </filter>
        <radialGradient id="paint0_radial_106_603" cx="0" cy="0" r="1" gradientUnits="userSpaceOnUse" gradientTransform="translate(145.089 77.4658) rotate(-110.468) scale(49.5642 48.1397)">
            <stop offset="0.30655" stop-color="#CDE6FF"/>
            <stop offset="1" stop-color="#B6D8FA"/>
        </radialGradient>
        <radialGradient id="paint1_radial_106_603" cx="0" cy="0" r="1" gradientUnits="userSpaceOnUse" gradientTransform="translate(166.105 65.0138) rotate(-148.811) scale(20.0949 66.8224)">
            <stop offset="0.401187" stop-color="#B7DBFF"/>
            <stop offset="1" stop-color="#B7DBFF" stop-opacity="0"/>
        </radialGradient>
        <radialGradient id="paint2_radial_106_603" cx="0" cy="0" r="1" gradientUnits="userSpaceOnUse" gradientTransform="translate(204.844 156.559) rotate(-106.955) scale(180.093 101.184)">
            <stop stop-color="#CCE6FF"/>
            <stop offset="1" stop-color="#CCE6FF" stop-opacity="0"/>
        </radialGradient>
        <radialGradient id="paint3_radial_106_603" cx="0" cy="0" r="1" gradientUnits="userSpaceOnUse" gradientTransform="translate(369.756 71.4775) rotate(147.006) scale(167.817 187.453)">
            <stop offset="0.189911" stop-color="#F0F8FF"/>
            <stop offset="1" stop-color="#F0F8FF" stop-opacity="0"/>
        </radialGradient>
        <radialGradient id="paint4_radial_106_603" cx="0" cy="0" r="1" gradientUnits="userSpaceOnUse" gradientTransform="translate(102.956 116.644) rotate(147.319) scale(132.283 161.197)">
            <stop stop-color="#F0F8FF"/>
            <stop offset="0.695905" stop-color="#F0F8FF" stop-opacity="0"/>
        </radialGradient>
        <radialGradient id="paint5_radial_106_603" cx="0" cy="0" r="1" gradientUnits="userSpaceOnUse" gradientTransform="translate(133.417 60.9735) rotate(71.9061) scale(111.609 41.6085)">
            <stop stop-color="#F0F8FF"/>
            <stop offset="1" stop-color="#F0F8FF" stop-opacity="0"/>
        </radialGradient>
    </defs>
</svg>
