<svg width="264" height="262" viewBox="0 0 264 262" fill="none" xmlns="http://www.w3.org/2000/svg">
    <path d="M118.908 29.2705C150.76 -3.40992 203.049 -3.96228 235.729 27.8896C266.016 57.44 268.686 104.573 243.646 137.346C229.653 156.954 206.731 169.75 180.771 169.75H63.9491C44.5249 169.75 27.31 160.544 16.3551 146.183C8.25403 135.965 3.375 123.077 3.375 109.084C3.375 76.2197 29.9797 49.6151 62.8444 49.6151C63.1868 49.6151 63.5285 49.618 63.8696 49.6238C69.7262 36.8261 82.644 27.9349 97.6384 27.9349C104.223 27.9349 110.407 29.6495 115.768 32.6564C116.776 31.5062 117.823 30.377 118.908 29.2705Z" fill="white" fill-opacity="0.75"/>
    <path d="M84.671 197.593C87.4502 193.196 93.8623 193.196 96.6415 197.593L99.5944 202.264C101.04 204.551 103.663 205.814 106.353 205.519L111.846 204.915C117.016 204.347 121.014 209.36 119.31 214.274L117.499 219.495C116.612 222.051 117.26 224.89 119.168 226.808L123.065 230.727C126.733 234.414 125.306 240.666 120.401 242.397L115.19 244.237C112.639 245.137 110.823 247.413 110.513 250.102L109.879 255.591C109.283 260.758 103.506 263.54 99.0942 260.785L94.4071 257.858C92.1119 256.424 89.2006 256.424 86.9054 257.858L82.2183 260.785C77.8068 263.54 72.0297 260.758 71.4332 255.591L70.7994 250.102C70.4891 247.413 68.6739 245.137 66.1222 244.237L60.9113 242.397C56.0068 240.666 54.5799 234.414 58.2476 230.727L62.1443 226.808C64.0525 224.89 64.7003 222.051 63.8136 219.495L62.0028 214.274C60.2985 209.36 64.2963 204.347 69.4663 204.915L74.9593 205.519C77.6491 205.814 80.2722 204.551 81.7181 202.264L84.671 197.593Z" fill="white" fill-opacity="0.75"/>
    <path d="M179.631 175.866C178.626 172.031 173.967 170.552 170.934 173.105C169.355 174.433 167.158 174.746 165.272 173.911C161.647 172.306 157.585 175.027 157.691 178.99C157.745 181.052 156.62 182.965 154.791 183.919C151.275 185.753 150.87 190.624 154.035 193.013C155.681 194.256 156.475 196.329 156.081 198.353C155.322 202.245 158.878 205.599 162.719 204.615C164.717 204.103 166.833 204.774 168.17 206.345C170.74 209.364 175.579 208.675 177.204 205.058C178.05 203.177 179.894 201.941 181.955 201.875C185.918 201.749 188.397 197.536 186.582 194.01C185.638 192.176 185.822 189.964 187.056 188.311C189.428 185.134 187.679 180.569 183.792 179.79C181.769 179.384 180.154 177.861 179.631 175.866Z" fill="white" fill-opacity="0.75"/>
    <path d="M84.671 197.593C87.4502 193.196 93.8623 193.196 96.6415 197.593L99.5944 202.264C101.04 204.551 103.663 205.814 106.353 205.519L111.846 204.915C117.016 204.347 121.014 209.36 119.31 214.274L117.499 219.495C116.612 222.051 117.26 224.89 119.168 226.808L123.065 230.727C126.733 234.414 125.306 240.666 120.401 242.397L115.19 244.237C112.639 245.137 110.823 247.413 110.513 250.102L109.879 255.591C109.283 260.758 103.506 263.54 99.0942 260.785L94.4071 257.858C92.1119 256.424 89.2006 256.424 86.9054 257.858L82.2183 260.785C77.8068 263.54 72.0297 260.758 71.4332 255.591L70.7994 250.102C70.4891 247.413 68.6739 245.137 66.1222 244.237L60.9113 242.397C56.0068 240.666 54.5799 234.414 58.2476 230.727L62.1443 226.808C64.0525 224.89 64.7003 222.051 63.8136 219.495L62.0028 214.274C60.2985 209.36 64.2963 204.347 69.4663 204.915L74.9593 205.519C77.6491 205.814 80.2722 204.551 81.7181 202.264L84.671 197.593Z" fill="white" fill-opacity="0.75"/>
    <path d="M98 98C118.987 98 136 80.763 136 59.5C136 38.237 118.987 21 98 21C77.0132 21 60 38.237 60 59.5C60 80.763 77.0132 98 98 98Z" fill="url(#paint0_radial_15_945)"/>
    <path d="M98 98C118.987 98 136 80.763 136 59.5C136 38.237 118.987 21 98 21C77.0132 21 60 38.237 60 59.5C60 80.763 77.0132 98 98 98Z" fill="url(#paint1_radial_15_945)"/>
    <g filter="url(#filter0_ii_15_945)">
        <path d="M238.479 24.1722C204.937 -8.57044 151.27 -8.00264 118.578 25.5917C109.122 35.2506 102.541 46.5823 98.5614 58.6657C98.5079 58.8282 98.3109 58.8909 98.1731 58.7895C94.5628 56.1333 90.5979 53.8412 86.4535 52.0886C78.7058 48.4926 70.1077 46.5053 61.0371 46.5053C27.3061 46.5053 0 73.854 0 107.638C0 122.022 5.00769 135.27 13.3223 145.774C24.566 160.537 42.2347 170 62.171 170C86.1701 170 155.144 170 182.072 170C208.717 170 232.243 156.846 246.605 136.69C272.305 103.001 269.47 54.549 238.479 24.1722Z" fill="#D3E9FF"/>
        <path d="M238.479 24.1722C204.937 -8.57044 151.27 -8.00264 118.578 25.5917C109.122 35.2506 102.541 46.5823 98.5614 58.6657C98.5079 58.8282 98.3109 58.8909 98.1731 58.7895C94.5628 56.1333 90.5979 53.8412 86.4535 52.0886C78.7058 48.4926 70.1077 46.5053 61.0371 46.5053C27.3061 46.5053 0 73.854 0 107.638C0 122.022 5.00769 135.27 13.3223 145.774C24.566 160.537 42.2347 170 62.171 170C86.1701 170 155.144 170 182.072 170C208.717 170 232.243 156.846 246.605 136.69C272.305 103.001 269.47 54.549 238.479 24.1722Z" fill="url(#paint2_radial_15_945)"/>
        <path d="M238.479 24.1722C204.937 -8.57044 151.27 -8.00264 118.578 25.5917C109.122 35.2506 102.541 46.5823 98.5614 58.6657C98.5079 58.8282 98.3109 58.8909 98.1731 58.7895C94.5628 56.1333 90.5979 53.8412 86.4535 52.0886C78.7058 48.4926 70.1077 46.5053 61.0371 46.5053C27.3061 46.5053 0 73.854 0 107.638C0 122.022 5.00769 135.27 13.3223 145.774C24.566 160.537 42.2347 170 62.171 170C86.1701 170 155.144 170 182.072 170C208.717 170 232.243 156.846 246.605 136.69C272.305 103.001 269.47 54.549 238.479 24.1722Z" fill="url(#paint3_radial_15_945)"/>
        <path d="M238.479 24.1722C204.937 -8.57044 151.27 -8.00264 118.578 25.5917C109.122 35.2506 102.541 46.5823 98.5614 58.6657C98.5079 58.8282 98.3109 58.8909 98.1731 58.7895C94.5628 56.1333 90.5979 53.8412 86.4535 52.0886C78.7058 48.4926 70.1077 46.5053 61.0371 46.5053C27.3061 46.5053 0 73.854 0 107.638C0 122.022 5.00769 135.27 13.3223 145.774C24.566 160.537 42.2347 170 62.171 170C86.1701 170 155.144 170 182.072 170C208.717 170 232.243 156.846 246.605 136.69C272.305 103.001 269.47 54.549 238.479 24.1722Z" fill="url(#paint4_radial_15_945)"/>
        <path d="M238.479 24.1722C204.937 -8.57044 151.27 -8.00264 118.578 25.5917C109.122 35.2506 102.541 46.5823 98.5614 58.6657C98.5079 58.8282 98.3109 58.8909 98.1731 58.7895C94.5628 56.1333 90.5979 53.8412 86.4535 52.0886C78.7058 48.4926 70.1077 46.5053 61.0371 46.5053C27.3061 46.5053 0 73.854 0 107.638C0 122.022 5.00769 135.27 13.3223 145.774C24.566 160.537 42.2347 170 62.171 170C86.1701 170 155.144 170 182.072 170C208.717 170 232.243 156.846 246.605 136.69C272.305 103.001 269.47 54.549 238.479 24.1722Z" fill="url(#paint5_radial_15_945)"/>
    </g>
    <defs>
        <filter id="filter0_ii_15_945" x="0" y="0" width="264" height="170" filterUnits="userSpaceOnUse" color-interpolation-filters="sRGB">
            <feFlood flood-opacity="0" result="BackgroundImageFix"/>
            <feBlend mode="normal" in="SourceGraphic" in2="BackgroundImageFix" result="shape"/>
            <feColorMatrix in="SourceAlpha" type="matrix" values="0 0 0 0 0 0 0 0 0 0 0 0 0 0 0 0 0 0 127 0" result="hardAlpha"/>
            <feOffset/>
            <feGaussianBlur stdDeviation="3.5"/>
            <feComposite in2="hardAlpha" operator="arithmetic" k2="-1" k3="1"/>
            <feColorMatrix type="matrix" values="0 0 0 0 0.698039 0 0 0 0 0.845098 0 0 0 0 0.992157 0 0 0 1 0"/>
            <feBlend mode="normal" in2="shape" result="effect1_innerShadow_15_945"/>
            <feColorMatrix in="SourceAlpha" type="matrix" values="0 0 0 0 0 0 0 0 0 0 0 0 0 0 0 0 0 0 127 0" result="hardAlpha"/>
            <feOffset/>
            <feGaussianBlur stdDeviation="1.25"/>
            <feComposite in2="hardAlpha" operator="arithmetic" k2="-1" k3="1"/>
            <feColorMatrix type="matrix" values="0 0 0 0 0.698039 0 0 0 0 0.845098 0 0 0 0 0.992157 0 0 0 1 0"/>
            <feBlend mode="normal" in2="effect1_innerShadow_15_945" result="effect2_innerShadow_15_945"/>
        </filter>
        <radialGradient id="paint0_radial_15_945" cx="0" cy="0" r="1" gradientUnits="userSpaceOnUse" gradientTransform="translate(95.4042 52.9232) rotate(-110.223) scale(34.0206 32.7169)">
            <stop offset="0.30655" stop-color="#CDE6FF"/>
            <stop offset="1" stop-color="#B6D8FA"/>
        </radialGradient>
        <radialGradient id="paint1_radial_15_945" cx="0" cy="0" r="1" gradientUnits="userSpaceOnUse" gradientTransform="translate(109.665 44.3628) rotate(-148.478) scale(13.6838 45.7768)">
            <stop offset="0.401187" stop-color="#B7DBFF"/>
            <stop offset="1" stop-color="#B7DBFF" stop-opacity="0"/>
        </radialGradient>
        <radialGradient id="paint2_radial_15_945" cx="0" cy="0" r="1" gradientUnits="userSpaceOnUse" gradientTransform="translate(136.218 106.88) rotate(-106.93) scale(122.93 68.9784)">
            <stop stop-color="#CCE6FF"/>
            <stop offset="1" stop-color="#CCE6FF" stop-opacity="0"/>
        </radialGradient>
        <radialGradient id="paint3_radial_15_945" cx="0" cy="0" r="1" gradientUnits="userSpaceOnUse" gradientTransform="translate(248.625 48.7963) rotate(146.965) scale(114.44 127.912)">
            <stop offset="0.189911" stop-color="#F0F8FF"/>
            <stop offset="1" stop-color="#F0F8FF" stop-opacity="0"/>
        </radialGradient>
        <radialGradient id="paint4_radial_15_945" cx="0" cy="0" r="1" gradientUnits="userSpaceOnUse" gradientTransform="translate(66.7686 79.631) rotate(147.279) scale(90.2078 109.996)">
            <stop stop-color="#F0F8FF"/>
            <stop offset="0.695905" stop-color="#F0F8FF" stop-opacity="0"/>
        </radialGradient>
        <radialGradient id="paint5_radial_15_945" cx="0" cy="0" r="1" gradientUnits="userSpaceOnUse" gradientTransform="translate(87.5318 41.6255) rotate(71.9324) scale(76.1821 28.3654)">
            <stop stop-color="#F0F8FF"/>
            <stop offset="1" stop-color="#F0F8FF" stop-opacity="0"/>
        </radialGradient>
    </defs>
</svg>
