<svg width="441" height="441" viewBox="0 0 441 441" fill="none" xmlns="http://www.w3.org/2000/svg">
    <path d="M180.034 18.6713C204.981 -8.32589 238.899 -4.02912 260.602 18.6713L273.838 33.4041C278.421 38.1978 285.053 40.6836 291.802 40.1373L315.333 33.4041C347.407 26.7936 376.554 49.7987 376.554 85.53V98.9905C377.234 106.338 383.91 111.319 390.805 114.557L412.065 123.097C442.819 137.537 450.504 171.799 428.103 200.556L421.739 208.632C416.03 216.051 417.203 225.789 422.884 233.228L429.248 241.794C452.413 269.204 439.351 306.81 406.63 319.948L388.328 327.297C381.435 330.065 378.734 334.816 377.445 341.89L376.172 364.895C371.718 396.466 342.552 410.726 319.151 407.541L291.277 400.382C284.582 399.471 276.258 401.606 271.803 408.336L261.748 421.552C236.801 448.595 203.13 444.098 186.143 428.282L167.595 406.684C162.738 402.162 156.614 398.302 149.286 400.961L121.231 408.336C98.0691 411.489 70.7959 394.37 66.4305 372.276L63.191 340.299C61.8761 333.644 57.3111 328.003 50.9243 325.142L31.244 318.64C1.64943 305.382 -8.26291 273.282 8.72959 246.478L19.8219 231.731C24.2773 224.703 24.0655 215.823 19.2797 208.999L11.0065 197.741C-12.4126 165.681 3.77919 129.846 38.4825 119.103L46.1365 116.734C54.5843 114.119 62.7444 107.374 63.4465 98.8682L65.1509 78.2204C67.9174 44.7055 99.7275 25.4742 133.185 35.253L144.014 38.4178C154.451 42.3336 162.628 38.9988 168.324 33.0336L180.034 18.6713Z" fill="url(#paint0_linear_369_192)"/>
    <path d="M180.034 18.6713C204.981 -8.32589 238.899 -4.02912 260.602 18.6713L273.838 33.4041C278.421 38.1978 285.053 40.6836 291.802 40.1373L315.333 33.4041C347.407 26.7936 376.554 49.7987 376.554 85.53V98.9905C377.234 106.338 383.91 111.319 390.805 114.557L412.065 123.097C442.819 137.537 450.504 171.799 428.103 200.556L421.739 208.632C416.03 216.051 417.203 225.789 422.884 233.228L429.248 241.794C452.413 269.204 439.351 306.81 406.63 319.948L388.328 327.297C381.435 330.065 378.734 334.816 377.445 341.89L376.172 364.895C371.718 396.466 342.552 410.726 319.151 407.541L291.277 400.382C284.582 399.471 276.258 401.606 271.803 408.336L261.748 421.552C236.801 448.595 203.13 444.098 186.143 428.282L167.595 406.684C162.738 402.162 156.614 398.302 149.286 400.961L121.231 408.336C98.0691 411.489 70.7959 394.37 66.4305 372.276L63.191 340.299C61.8761 333.644 57.3111 328.003 50.9243 325.142L31.244 318.64C1.64943 305.382 -8.26291 273.282 8.72959 246.478L19.8219 231.731C24.2773 224.703 24.0655 215.823 19.2797 208.999L11.0065 197.741C-12.4126 165.681 3.77919 129.846 38.4825 119.103L46.1365 116.734C54.5843 114.119 62.7444 107.374 63.4465 98.8682L65.1509 78.2204C67.9174 44.7055 99.7275 25.4742 133.185 35.253L144.014 38.4178C154.451 42.3336 162.628 38.9988 168.324 33.0336L180.034 18.6713Z" fill="url(#paint1_radial_369_192)"/>
    <path d="M180.034 18.6713C204.981 -8.32589 238.899 -4.02912 260.602 18.6713L273.838 33.4041C278.421 38.1978 285.053 40.6836 291.802 40.1373L315.333 33.4041C347.407 26.7936 376.554 49.7987 376.554 85.53V98.9905C377.234 106.338 383.91 111.319 390.805 114.557L412.065 123.097C442.819 137.537 450.504 171.799 428.103 200.556L421.739 208.632C416.03 216.051 417.203 225.789 422.884 233.228L429.248 241.794C452.413 269.204 439.351 306.81 406.63 319.948L388.328 327.297C381.435 330.065 378.734 334.816 377.445 341.89L376.172 364.895C371.718 396.466 342.552 410.726 319.151 407.541L291.277 400.382C284.582 399.471 276.258 401.606 271.803 408.336L261.748 421.552C236.801 448.595 203.13 444.098 186.143 428.282L167.595 406.684C162.738 402.162 156.614 398.302 149.286 400.961L121.231 408.336C98.0691 411.489 70.7959 394.37 66.4305 372.276L63.191 340.299C61.8761 333.644 57.3111 328.003 50.9243 325.142L31.244 318.64C1.64943 305.382 -8.26291 273.282 8.72959 246.478L19.8219 231.731C24.2773 224.703 24.0655 215.823 19.2797 208.999L11.0065 197.741C-12.4126 165.681 3.77919 129.846 38.4825 119.103L46.1365 116.734C54.5843 114.119 62.7444 107.374 63.4465 98.8682L65.1509 78.2204C67.9174 44.7055 99.7275 25.4742 133.185 35.253L144.014 38.4178C154.451 42.3336 162.628 38.9988 168.324 33.0336L180.034 18.6713Z" fill="url(#paint2_radial_369_192)"/>
    <path d="M180.034 18.6713C204.981 -8.32589 238.899 -4.02912 260.602 18.6713L273.838 33.4041C278.421 38.1978 285.053 40.6836 291.802 40.1373L315.333 33.4041C347.407 26.7936 376.554 49.7987 376.554 85.53V98.9905C377.234 106.338 383.91 111.319 390.805 114.557L412.065 123.097C442.819 137.537 450.504 171.799 428.103 200.556L421.739 208.632C416.03 216.051 417.203 225.789 422.884 233.228L429.248 241.794C452.413 269.204 439.351 306.81 406.63 319.948L388.328 327.297C381.435 330.065 378.734 334.816 377.445 341.89L376.172 364.895C371.718 396.466 342.552 410.726 319.151 407.541L291.277 400.382C284.582 399.471 276.258 401.606 271.803 408.336L261.748 421.552C236.801 448.595 203.13 444.098 186.143 428.282L167.595 406.684C162.738 402.162 156.614 398.302 149.286 400.961L121.231 408.336C98.0691 411.489 70.7959 394.37 66.4305 372.276L63.191 340.299C61.8761 333.644 57.3111 328.003 50.9243 325.142L31.244 318.64C1.64943 305.382 -8.26291 273.282 8.72959 246.478L19.8219 231.731C24.2773 224.703 24.0655 215.823 19.2797 208.999L11.0065 197.741C-12.4126 165.681 3.77919 129.846 38.4825 119.103L46.1365 116.734C54.5843 114.119 62.7444 107.374 63.4465 98.8682L65.1509 78.2204C67.9174 44.7055 99.7275 25.4742 133.185 35.253L144.014 38.4178C154.451 42.3336 162.628 38.9988 168.324 33.0336L180.034 18.6713Z" fill="url(#paint3_radial_369_192)"/>
    <path d="M180.034 18.6713C204.981 -8.32589 238.899 -4.02912 260.602 18.6713L273.838 33.4041C278.421 38.1978 285.053 40.6836 291.802 40.1373L315.333 33.4041C347.407 26.7936 376.554 49.7987 376.554 85.53V98.9905C377.234 106.338 383.91 111.319 390.805 114.557L412.065 123.097C442.819 137.537 450.504 171.799 428.103 200.556L421.739 208.632C416.03 216.051 417.203 225.789 422.884 233.228L429.248 241.794C452.413 269.204 439.351 306.81 406.63 319.948L388.328 327.297C381.435 330.065 378.734 334.816 377.445 341.89L376.172 364.895C371.718 396.466 342.552 410.726 319.151 407.541L291.277 400.382C284.582 399.471 276.258 401.606 271.803 408.336L261.748 421.552C236.801 448.595 203.13 444.098 186.143 428.282L167.595 406.684C162.738 402.162 156.614 398.302 149.286 400.961L121.231 408.336C98.0691 411.489 70.7959 394.37 66.4305 372.276L63.191 340.299C61.8761 333.644 57.3111 328.003 50.9243 325.142L31.244 318.64C1.64943 305.382 -8.26291 273.282 8.72959 246.478L19.8219 231.731C24.2773 224.703 24.0655 215.823 19.2797 208.999L11.0065 197.741C-12.4126 165.681 3.77919 129.846 38.4825 119.103L46.1365 116.734C54.5843 114.119 62.7444 107.374 63.4465 98.8682L65.1509 78.2204C67.9174 44.7055 99.7275 25.4742 133.185 35.253L144.014 38.4178C154.451 42.3336 162.628 38.9988 168.324 33.0336L180.034 18.6713Z" fill="url(#paint4_radial_369_192)"/>
    <path d="M180.034 18.6713C204.981 -8.32589 238.899 -4.02912 260.602 18.6713L273.838 33.4041C278.421 38.1978 285.053 40.6836 291.802 40.1373L315.333 33.4041C347.407 26.7936 376.554 49.7987 376.554 85.53V98.9905C377.234 106.338 383.91 111.319 390.805 114.557L412.065 123.097C442.819 137.537 450.504 171.799 428.103 200.556L421.739 208.632C416.03 216.051 417.203 225.789 422.884 233.228L429.248 241.794C452.413 269.204 439.351 306.81 406.63 319.948L388.328 327.297C381.435 330.065 378.734 334.816 377.445 341.89L376.172 364.895C371.718 396.466 342.552 410.726 319.151 407.541L291.277 400.382C284.582 399.471 276.258 401.606 271.803 408.336L261.748 421.552C236.801 448.595 203.13 444.098 186.143 428.282L167.595 406.684C162.738 402.162 156.614 398.302 149.286 400.961L121.231 408.336C98.0691 411.489 70.7959 394.37 66.4305 372.276L63.191 340.299C61.8761 333.644 57.3111 328.003 50.9243 325.142L31.244 318.64C1.64943 305.382 -8.26291 273.282 8.72959 246.478L19.8219 231.731C24.2773 224.703 24.0655 215.823 19.2797 208.999L11.0065 197.741C-12.4126 165.681 3.77919 129.846 38.4825 119.103L46.1365 116.734C54.5843 114.119 62.7444 107.374 63.4465 98.8682L65.1509 78.2204C67.9174 44.7055 99.7275 25.4742 133.185 35.253L144.014 38.4178C154.451 42.3336 162.628 38.9988 168.324 33.0336L180.034 18.6713Z" fill="url(#paint5_radial_369_192)"/>
    <path d="M180.034 18.6713C204.981 -8.32589 238.899 -4.02912 260.602 18.6713L273.838 33.4041C278.421 38.1978 285.053 40.6836 291.802 40.1373L315.333 33.4041C347.407 26.7936 376.554 49.7987 376.554 85.53V98.9905C377.234 106.338 383.91 111.319 390.805 114.557L412.065 123.097C442.819 137.537 450.504 171.799 428.103 200.556L421.739 208.632C416.03 216.051 417.203 225.789 422.884 233.228L429.248 241.794C452.413 269.204 439.351 306.81 406.63 319.948L388.328 327.297C381.435 330.065 378.734 334.816 377.445 341.89L376.172 364.895C371.718 396.466 342.552 410.726 319.151 407.541L291.277 400.382C284.582 399.471 276.258 401.606 271.803 408.336L261.748 421.552C236.801 448.595 203.13 444.098 186.143 428.282L167.595 406.684C162.738 402.162 156.614 398.302 149.286 400.961L121.231 408.336C98.0691 411.489 70.7959 394.37 66.4305 372.276L63.191 340.299C61.8761 333.644 57.3111 328.003 50.9243 325.142L31.244 318.64C1.64943 305.382 -8.26291 273.282 8.72959 246.478L19.8219 231.731C24.2773 224.703 24.0655 215.823 19.2797 208.999L11.0065 197.741C-12.4126 165.681 3.77919 129.846 38.4825 119.103L46.1365 116.734C54.5843 114.119 62.7444 107.374 63.4465 98.8682L65.1509 78.2204C67.9174 44.7055 99.7275 25.4742 133.185 35.253L144.014 38.4178C154.451 42.3336 162.628 38.9988 168.324 33.0336L180.034 18.6713Z" fill="url(#paint6_radial_369_192)"/>
    <path d="M180.034 18.6713C204.981 -8.32589 238.899 -4.02912 260.602 18.6713L273.838 33.4041C278.421 38.1978 285.053 40.6836 291.802 40.1373L315.333 33.4041C347.407 26.7936 376.554 49.7987 376.554 85.53V98.9905C377.234 106.338 383.91 111.319 390.805 114.557L412.065 123.097C442.819 137.537 450.504 171.799 428.103 200.556L421.739 208.632C416.03 216.051 417.203 225.789 422.884 233.228L429.248 241.794C452.413 269.204 439.351 306.81 406.63 319.948L388.328 327.297C381.435 330.065 378.734 334.816 377.445 341.89L376.172 364.895C371.718 396.466 342.552 410.726 319.151 407.541L291.277 400.382C284.582 399.471 276.258 401.606 271.803 408.336L261.748 421.552C236.801 448.595 203.13 444.098 186.143 428.282L167.595 406.684C162.738 402.162 156.614 398.302 149.286 400.961L121.231 408.336C98.0691 411.489 70.7959 394.37 66.4305 372.276L63.191 340.299C61.8761 333.644 57.3111 328.003 50.9243 325.142L31.244 318.64C1.64943 305.382 -8.26291 273.282 8.72959 246.478L19.8219 231.731C24.2773 224.703 24.0655 215.823 19.2797 208.999L11.0065 197.741C-12.4126 165.681 3.77919 129.846 38.4825 119.103L46.1365 116.734C54.5843 114.119 62.7444 107.374 63.4465 98.8682L65.1509 78.2204C67.9174 44.7055 99.7275 25.4742 133.185 35.253L144.014 38.4178C154.451 42.3336 162.628 38.9988 168.324 33.0336L180.034 18.6713Z" fill="url(#paint7_radial_369_192)"/>
    <path d="M180.034 18.6713C204.981 -8.32589 238.899 -4.02912 260.602 18.6713L273.838 33.4041C278.421 38.1978 285.053 40.6836 291.802 40.1373L315.333 33.4041C347.407 26.7936 376.554 49.7987 376.554 85.53V98.9905C377.234 106.338 383.91 111.319 390.805 114.557L412.065 123.097C442.819 137.537 450.504 171.799 428.103 200.556L421.739 208.632C416.03 216.051 417.203 225.789 422.884 233.228L429.248 241.794C452.413 269.204 439.351 306.81 406.63 319.948L388.328 327.297C381.435 330.065 378.734 334.816 377.445 341.89L376.172 364.895C371.718 396.466 342.552 410.726 319.151 407.541L291.277 400.382C284.582 399.471 276.258 401.606 271.803 408.336L261.748 421.552C236.801 448.595 203.13 444.098 186.143 428.282L167.595 406.684C162.738 402.162 156.614 398.302 149.286 400.961L121.231 408.336C98.0691 411.489 70.7959 394.37 66.4305 372.276L63.191 340.299C61.8761 333.644 57.3111 328.003 50.9243 325.142L31.244 318.64C1.64943 305.382 -8.26291 273.282 8.72959 246.478L19.8219 231.731C24.2773 224.703 24.0655 215.823 19.2797 208.999L11.0065 197.741C-12.4126 165.681 3.77919 129.846 38.4825 119.103L46.1365 116.734C54.5843 114.119 62.7444 107.374 63.4465 98.8682L65.1509 78.2204C67.9174 44.7055 99.7275 25.4742 133.185 35.253L144.014 38.4178C154.451 42.3336 162.628 38.9988 168.324 33.0336L180.034 18.6713Z" fill="url(#paint8_radial_369_192)"/>
    <path d="M180.034 18.6713C204.981 -8.32589 238.899 -4.02912 260.602 18.6713L273.838 33.4041C278.421 38.1978 285.053 40.6836 291.802 40.1373L315.333 33.4041C347.407 26.7936 376.554 49.7987 376.554 85.53V98.9905C377.234 106.338 383.91 111.319 390.805 114.557L412.065 123.097C442.819 137.537 450.504 171.799 428.103 200.556L421.739 208.632C416.03 216.051 417.203 225.789 422.884 233.228L429.248 241.794C452.413 269.204 439.351 306.81 406.63 319.948L388.328 327.297C381.435 330.065 378.734 334.816 377.445 341.89L376.172 364.895C371.718 396.466 342.552 410.726 319.151 407.541L291.277 400.382C284.582 399.471 276.258 401.606 271.803 408.336L261.748 421.552C236.801 448.595 203.13 444.098 186.143 428.282L167.595 406.684C162.738 402.162 156.614 398.302 149.286 400.961L121.231 408.336C98.0691 411.489 70.7959 394.37 66.4305 372.276L63.191 340.299C61.8761 333.644 57.3111 328.003 50.9243 325.142L31.244 318.64C1.64943 305.382 -8.26291 273.282 8.72959 246.478L19.8219 231.731C24.2773 224.703 24.0655 215.823 19.2797 208.999L11.0065 197.741C-12.4126 165.681 3.77919 129.846 38.4825 119.103L46.1365 116.734C54.5843 114.119 62.7444 107.374 63.4465 98.8682L65.1509 78.2204C67.9174 44.7055 99.7275 25.4742 133.185 35.253L144.014 38.4178C154.451 42.3336 162.628 38.9988 168.324 33.0336L180.034 18.6713Z" fill="url(#paint9_radial_369_192)"/>
    <g filter="url(#filter0_d_369_192)">
        <path d="M220.499 388.367C317.162 388.367 395.522 313.031 395.522 220.1C395.522 127.168 317.162 51.8321 220.499 51.8321C123.837 51.8321 45.4772 127.168 45.4772 220.1C45.4772 313.031 123.837 388.367 220.499 388.367Z" fill="url(#paint10_radial_369_192)"/>
        <path d="M220.499 388.367C317.162 388.367 395.522 313.031 395.522 220.1C395.522 127.168 317.162 51.8321 220.499 51.8321C123.837 51.8321 45.4772 127.168 45.4772 220.1C45.4772 313.031 123.837 388.367 220.499 388.367Z" fill="url(#paint11_radial_369_192)"/>
        <path d="M220.499 388.367C317.162 388.367 395.522 313.031 395.522 220.1C395.522 127.168 317.162 51.8321 220.499 51.8321C123.837 51.8321 45.4772 127.168 45.4772 220.1C45.4772 313.031 123.837 388.367 220.499 388.367Z" fill="url(#paint12_radial_369_192)"/>
    </g>
    <defs>
        <filter id="filter0_d_369_192" x="44.8772" y="51.8321" width="350.645" height="337.135" filterUnits="userSpaceOnUse" color-interpolation-filters="sRGB">
            <feFlood flood-opacity="0" result="BackgroundImageFix"/>
            <feColorMatrix in="SourceAlpha" type="matrix" values="0 0 0 0 0 0 0 0 0 0 0 0 0 0 0 0 0 0 127 0" result="hardAlpha"/>
            <feOffset dx="-0.3" dy="0.3"/>
            <feGaussianBlur stdDeviation="0.15"/>
            <feComposite in2="hardAlpha" operator="out"/>
            <feColorMatrix type="matrix" values="0 0 0 0 0.921569 0 0 0 0 0.47451 0 0 0 0 0.133333 0 0 0 1 0"/>
            <feBlend mode="normal" in2="BackgroundImageFix" result="effect1_dropShadow_369_192"/>
            <feBlend mode="normal" in="SourceGraphic" in2="effect1_dropShadow_369_192" result="shape"/>
        </filter>
        <linearGradient id="paint0_linear_369_192" x1="356.434" y1="74.055" x2="118.43" y2="389.905" gradientUnits="userSpaceOnUse">
            <stop stop-color="#FC8B23"/>
            <stop offset="1" stop-color="#E67639"/>
        </linearGradient>
        <radialGradient id="paint1_radial_369_192" cx="0" cy="0" r="1" gradientUnits="userSpaceOnUse" gradientTransform="translate(262.604 20.3373) rotate(139.273) scale(60.5151 53.122)">
            <stop offset="0.300161" stop-color="#FFA13A"/>
            <stop offset="1" stop-color="#FFA13A" stop-opacity="0"/>
        </radialGradient>
        <radialGradient id="paint2_radial_369_192" cx="0" cy="0" r="1" gradientUnits="userSpaceOnUse" gradientTransform="translate(102.437 1.65338) rotate(67.0108) scale(94.6383 85.8495)">
            <stop offset="0.300161" stop-color="#FF942A"/>
            <stop offset="1" stop-color="#FF942A" stop-opacity="0"/>
        </radialGradient>
        <radialGradient id="paint3_radial_369_192" cx="0" cy="0" r="1" gradientUnits="userSpaceOnUse" gradientTransform="translate(365.276 89.4335) rotate(-165.308) scale(38.9187 52.0812)">
            <stop offset="0.300161" stop-color="#FFA13D"/>
            <stop offset="1" stop-color="#FFA13D" stop-opacity="0"/>
        </radialGradient>
        <radialGradient id="paint4_radial_369_192" cx="0" cy="0" r="1" gradientUnits="userSpaceOnUse" gradientTransform="translate(443.99 144.052) rotate(155.068) scale(68.6882 49.4831)">
            <stop offset="0.300161" stop-color="#FFA13D"/>
            <stop offset="1" stop-color="#FFA13D" stop-opacity="0"/>
        </radialGradient>
        <radialGradient id="paint5_radial_369_192" cx="0" cy="0" r="1" gradientUnits="userSpaceOnUse" gradientTransform="translate(459.049 256.58) rotate(-173.633) scale(77.1371 41.8338)">
            <stop offset="0.300161" stop-color="#FFA13D"/>
            <stop offset="1" stop-color="#FFA13D" stop-opacity="0"/>
        </radialGradient>
        <radialGradient id="paint6_radial_369_192" cx="0" cy="0" r="1" gradientUnits="userSpaceOnUse" gradientTransform="translate(389.917 342.786) rotate(-42.8382) scale(68.7161 66.0547)">
            <stop stop-color="#E0762A"/>
            <stop offset="1" stop-color="#E0762A" stop-opacity="0"/>
        </radialGradient>
        <radialGradient id="paint7_radial_369_192" cx="0" cy="0" r="1" gradientUnits="userSpaceOnUse" gradientTransform="translate(65.4753 326.993) rotate(-128.844) scale(52.3837 50.9283)">
            <stop stop-color="#E0762A"/>
            <stop offset="1" stop-color="#E0762A" stop-opacity="0"/>
        </radialGradient>
        <radialGradient id="paint8_radial_369_192" cx="0" cy="0" r="1" gradientUnits="userSpaceOnUse" gradientTransform="translate(-7.76364 152.607) rotate(24.4179) scale(54.1233 63.7713)">
            <stop stop-color="#F0851D"/>
            <stop offset="1" stop-color="#F0851D" stop-opacity="0"/>
        </radialGradient>
        <radialGradient id="paint9_radial_369_192" cx="0" cy="0" r="1" gradientUnits="userSpaceOnUse" gradientTransform="translate(317.562 417.513) rotate(-143.571) scale(62.644 58.4592)">
            <stop offset="0.336586" stop-color="#E3745B"/>
            <stop offset="1" stop-color="#E3745B" stop-opacity="0"/>
        </radialGradient>
        <radialGradient id="paint10_radial_369_192" cx="0" cy="0" r="1" gradientUnits="userSpaceOnUse" gradientTransform="translate(319.822 122.615) rotate(118.679) scale(302.911 382.299)">
            <stop offset="0.17178" stop-color="#FFD13D"/>
            <stop offset="1" stop-color="#DCA21C"/>
            <stop offset="1" stop-color="#D89A29"/>
        </radialGradient>
        <radialGradient id="paint11_radial_369_192" cx="0" cy="0" r="1" gradientUnits="userSpaceOnUse" gradientTransform="translate(158.292 316.981) rotate(-141.732) scale(107.278 89.8133)">
            <stop offset="0.340699" stop-color="#DCA225"/>
            <stop offset="1" stop-color="#DCA225" stop-opacity="0"/>
        </radialGradient>
        <radialGradient id="paint12_radial_369_192" cx="0" cy="0" r="1" gradientUnits="userSpaceOnUse" gradientTransform="translate(363.458 191.365) rotate(168.739) scale(372.144 303.015)">
            <stop offset="0.620449" stop-color="#DCA225" stop-opacity="0"/>
            <stop offset="1" stop-color="#DCA225"/>
        </radialGradient>
    </defs>
</svg>
