<svg width="441" height="441" viewBox="0 0 441 441" fill="none" xmlns="http://www.w3.org/2000/svg">
    <path d="M166.881 70.139C186.167 48.43 212.389 51.8851 229.168 70.139L239.4 81.9861C242.943 85.8408 248.07 87.8397 253.288 87.4004L271.479 81.9861C296.276 76.6704 318.809 95.1694 318.809 123.902V134.726C319.335 140.634 324.496 144.64 329.826 147.243L346.262 154.11C370.037 165.721 375.979 193.273 358.66 216.397L353.74 222.891C349.327 228.857 350.234 236.687 354.626 242.669L359.546 249.557C377.454 271.598 367.357 301.838 342.06 312.403L327.911 318.312C322.582 320.538 320.494 324.359 319.498 330.047L318.514 348.546C315.07 373.933 292.522 385.4 274.431 382.838L252.882 377.082C247.706 376.349 241.271 378.066 237.827 383.478L230.053 394.105C210.767 415.851 184.737 412.235 171.604 399.517L157.264 382.149C153.51 378.513 148.776 375.409 143.11 377.547L121.421 383.478C103.515 386.013 82.4303 372.248 79.0555 354.481L76.5511 328.768C75.5345 323.416 72.0054 318.88 67.0678 316.579L51.8532 311.351C28.9739 300.69 21.3108 274.878 34.4475 253.324L43.0229 241.465C46.4673 235.814 46.3036 228.674 42.6037 223.186L36.2077 214.134C18.1027 188.353 30.6204 159.538 57.4492 150.899L63.3664 148.994C69.8973 146.891 76.2058 141.467 76.7486 134.627L78.0662 118.024C80.205 91.0738 104.797 75.6094 130.663 83.4728L139.034 86.0177C147.103 89.1664 153.425 86.4849 157.828 81.6881L166.881 70.139Z" fill="url(#paint0_linear_204_205)"/>
    <path d="M166.881 70.139C186.167 48.43 212.389 51.8851 229.168 70.139L239.4 81.9861C242.943 85.8408 248.07 87.8397 253.288 87.4004L271.479 81.9861C296.276 76.6704 318.809 95.1694 318.809 123.902V134.726C319.335 140.634 324.496 144.64 329.826 147.243L346.262 154.11C370.037 165.721 375.979 193.273 358.66 216.397L353.74 222.891C349.327 228.857 350.234 236.687 354.626 242.669L359.546 249.557C377.454 271.598 367.357 301.838 342.06 312.403L327.911 318.312C322.582 320.538 320.494 324.359 319.498 330.047L318.514 348.546C315.07 373.933 292.522 385.4 274.431 382.838L252.882 377.082C247.706 376.349 241.271 378.066 237.827 383.478L230.053 394.105C210.767 415.851 184.737 412.235 171.604 399.517L157.264 382.149C153.51 378.513 148.776 375.409 143.11 377.547L121.421 383.478C103.515 386.013 82.4303 372.248 79.0555 354.481L76.5511 328.768C75.5345 323.416 72.0054 318.88 67.0678 316.579L51.8532 311.351C28.9739 300.69 21.3108 274.878 34.4475 253.324L43.0229 241.465C46.4673 235.814 46.3036 228.674 42.6037 223.186L36.2077 214.134C18.1027 188.353 30.6204 159.538 57.4492 150.899L63.3664 148.994C69.8973 146.891 76.2058 141.467 76.7486 134.627L78.0662 118.024C80.205 91.0738 104.797 75.6094 130.663 83.4728L139.034 86.0177C147.103 89.1664 153.425 86.4849 157.828 81.6881L166.881 70.139Z" fill="url(#paint1_radial_204_205)"/>
    <path d="M166.881 70.139C186.167 48.43 212.389 51.8851 229.168 70.139L239.4 81.9861C242.943 85.8408 248.07 87.8397 253.288 87.4004L271.479 81.9861C296.276 76.6704 318.809 95.1694 318.809 123.902V134.726C319.335 140.634 324.496 144.64 329.826 147.243L346.262 154.11C370.037 165.721 375.979 193.273 358.66 216.397L353.74 222.891C349.327 228.857 350.234 236.687 354.626 242.669L359.546 249.557C377.454 271.598 367.357 301.838 342.06 312.403L327.911 318.312C322.582 320.538 320.494 324.359 319.498 330.047L318.514 348.546C315.07 373.933 292.522 385.4 274.431 382.838L252.882 377.082C247.706 376.349 241.271 378.066 237.827 383.478L230.053 394.105C210.767 415.851 184.737 412.235 171.604 399.517L157.264 382.149C153.51 378.513 148.776 375.409 143.11 377.547L121.421 383.478C103.515 386.013 82.4303 372.248 79.0555 354.481L76.5511 328.768C75.5345 323.416 72.0054 318.88 67.0678 316.579L51.8532 311.351C28.9739 300.69 21.3108 274.878 34.4475 253.324L43.0229 241.465C46.4673 235.814 46.3036 228.674 42.6037 223.186L36.2077 214.134C18.1027 188.353 30.6204 159.538 57.4492 150.899L63.3664 148.994C69.8973 146.891 76.2058 141.467 76.7486 134.627L78.0662 118.024C80.205 91.0738 104.797 75.6094 130.663 83.4728L139.034 86.0177C147.103 89.1664 153.425 86.4849 157.828 81.6881L166.881 70.139Z" fill="url(#paint2_radial_204_205)"/>
    <path d="M166.881 70.139C186.167 48.43 212.389 51.8851 229.168 70.139L239.4 81.9861C242.943 85.8408 248.07 87.8397 253.288 87.4004L271.479 81.9861C296.276 76.6704 318.809 95.1694 318.809 123.902V134.726C319.335 140.634 324.496 144.64 329.826 147.243L346.262 154.11C370.037 165.721 375.979 193.273 358.66 216.397L353.74 222.891C349.327 228.857 350.234 236.687 354.626 242.669L359.546 249.557C377.454 271.598 367.357 301.838 342.06 312.403L327.911 318.312C322.582 320.538 320.494 324.359 319.498 330.047L318.514 348.546C315.07 373.933 292.522 385.4 274.431 382.838L252.882 377.082C247.706 376.349 241.271 378.066 237.827 383.478L230.053 394.105C210.767 415.851 184.737 412.235 171.604 399.517L157.264 382.149C153.51 378.513 148.776 375.409 143.11 377.547L121.421 383.478C103.515 386.013 82.4303 372.248 79.0555 354.481L76.5511 328.768C75.5345 323.416 72.0054 318.88 67.0678 316.579L51.8532 311.351C28.9739 300.69 21.3108 274.878 34.4475 253.324L43.0229 241.465C46.4673 235.814 46.3036 228.674 42.6037 223.186L36.2077 214.134C18.1027 188.353 30.6204 159.538 57.4492 150.899L63.3664 148.994C69.8973 146.891 76.2058 141.467 76.7486 134.627L78.0662 118.024C80.205 91.0738 104.797 75.6094 130.663 83.4728L139.034 86.0177C147.103 89.1664 153.425 86.4849 157.828 81.6881L166.881 70.139Z" fill="url(#paint3_radial_204_205)"/>
    <path d="M166.881 70.139C186.167 48.43 212.389 51.8851 229.168 70.139L239.4 81.9861C242.943 85.8408 248.07 87.8397 253.288 87.4004L271.479 81.9861C296.276 76.6704 318.809 95.1694 318.809 123.902V134.726C319.335 140.634 324.496 144.64 329.826 147.243L346.262 154.11C370.037 165.721 375.979 193.273 358.66 216.397L353.74 222.891C349.327 228.857 350.234 236.687 354.626 242.669L359.546 249.557C377.454 271.598 367.357 301.838 342.06 312.403L327.911 318.312C322.582 320.538 320.494 324.359 319.498 330.047L318.514 348.546C315.07 373.933 292.522 385.4 274.431 382.838L252.882 377.082C247.706 376.349 241.271 378.066 237.827 383.478L230.053 394.105C210.767 415.851 184.737 412.235 171.604 399.517L157.264 382.149C153.51 378.513 148.776 375.409 143.11 377.547L121.421 383.478C103.515 386.013 82.4303 372.248 79.0555 354.481L76.5511 328.768C75.5345 323.416 72.0054 318.88 67.0678 316.579L51.8532 311.351C28.9739 300.69 21.3108 274.878 34.4475 253.324L43.0229 241.465C46.4673 235.814 46.3036 228.674 42.6037 223.186L36.2077 214.134C18.1027 188.353 30.6204 159.538 57.4492 150.899L63.3664 148.994C69.8973 146.891 76.2058 141.467 76.7486 134.627L78.0662 118.024C80.205 91.0738 104.797 75.6094 130.663 83.4728L139.034 86.0177C147.103 89.1664 153.425 86.4849 157.828 81.6881L166.881 70.139Z" fill="url(#paint4_radial_204_205)"/>
    <path d="M166.881 70.139C186.167 48.43 212.389 51.8851 229.168 70.139L239.4 81.9861C242.943 85.8408 248.07 87.8397 253.288 87.4004L271.479 81.9861C296.276 76.6704 318.809 95.1694 318.809 123.902V134.726C319.335 140.634 324.496 144.64 329.826 147.243L346.262 154.11C370.037 165.721 375.979 193.273 358.66 216.397L353.74 222.891C349.327 228.857 350.234 236.687 354.626 242.669L359.546 249.557C377.454 271.598 367.357 301.838 342.06 312.403L327.911 318.312C322.582 320.538 320.494 324.359 319.498 330.047L318.514 348.546C315.07 373.933 292.522 385.4 274.431 382.838L252.882 377.082C247.706 376.349 241.271 378.066 237.827 383.478L230.053 394.105C210.767 415.851 184.737 412.235 171.604 399.517L157.264 382.149C153.51 378.513 148.776 375.409 143.11 377.547L121.421 383.478C103.515 386.013 82.4303 372.248 79.0555 354.481L76.5511 328.768C75.5345 323.416 72.0054 318.88 67.0678 316.579L51.8532 311.351C28.9739 300.69 21.3108 274.878 34.4475 253.324L43.0229 241.465C46.4673 235.814 46.3036 228.674 42.6037 223.186L36.2077 214.134C18.1027 188.353 30.6204 159.538 57.4492 150.899L63.3664 148.994C69.8973 146.891 76.2058 141.467 76.7486 134.627L78.0662 118.024C80.205 91.0738 104.797 75.6094 130.663 83.4728L139.034 86.0177C147.103 89.1664 153.425 86.4849 157.828 81.6881L166.881 70.139Z" fill="url(#paint5_radial_204_205)"/>
    <path d="M166.881 70.139C186.167 48.43 212.389 51.8851 229.168 70.139L239.4 81.9861C242.943 85.8408 248.07 87.8397 253.288 87.4004L271.479 81.9861C296.276 76.6704 318.809 95.1694 318.809 123.902V134.726C319.335 140.634 324.496 144.64 329.826 147.243L346.262 154.11C370.037 165.721 375.979 193.273 358.66 216.397L353.74 222.891C349.327 228.857 350.234 236.687 354.626 242.669L359.546 249.557C377.454 271.598 367.357 301.838 342.06 312.403L327.911 318.312C322.582 320.538 320.494 324.359 319.498 330.047L318.514 348.546C315.07 373.933 292.522 385.4 274.431 382.838L252.882 377.082C247.706 376.349 241.271 378.066 237.827 383.478L230.053 394.105C210.767 415.851 184.737 412.235 171.604 399.517L157.264 382.149C153.51 378.513 148.776 375.409 143.11 377.547L121.421 383.478C103.515 386.013 82.4303 372.248 79.0555 354.481L76.5511 328.768C75.5345 323.416 72.0054 318.88 67.0678 316.579L51.8532 311.351C28.9739 300.69 21.3108 274.878 34.4475 253.324L43.0229 241.465C46.4673 235.814 46.3036 228.674 42.6037 223.186L36.2077 214.134C18.1027 188.353 30.6204 159.538 57.4492 150.899L63.3664 148.994C69.8973 146.891 76.2058 141.467 76.7486 134.627L78.0662 118.024C80.205 91.0738 104.797 75.6094 130.663 83.4728L139.034 86.0177C147.103 89.1664 153.425 86.4849 157.828 81.6881L166.881 70.139Z" fill="url(#paint6_radial_204_205)"/>
    <path d="M166.881 70.139C186.167 48.43 212.389 51.8851 229.168 70.139L239.4 81.9861C242.943 85.8408 248.07 87.8397 253.288 87.4004L271.479 81.9861C296.276 76.6704 318.809 95.1694 318.809 123.902V134.726C319.335 140.634 324.496 144.64 329.826 147.243L346.262 154.11C370.037 165.721 375.979 193.273 358.66 216.397L353.74 222.891C349.327 228.857 350.234 236.687 354.626 242.669L359.546 249.557C377.454 271.598 367.357 301.838 342.06 312.403L327.911 318.312C322.582 320.538 320.494 324.359 319.498 330.047L318.514 348.546C315.07 373.933 292.522 385.4 274.431 382.838L252.882 377.082C247.706 376.349 241.271 378.066 237.827 383.478L230.053 394.105C210.767 415.851 184.737 412.235 171.604 399.517L157.264 382.149C153.51 378.513 148.776 375.409 143.11 377.547L121.421 383.478C103.515 386.013 82.4303 372.248 79.0555 354.481L76.5511 328.768C75.5345 323.416 72.0054 318.88 67.0678 316.579L51.8532 311.351C28.9739 300.69 21.3108 274.878 34.4475 253.324L43.0229 241.465C46.4673 235.814 46.3036 228.674 42.6037 223.186L36.2077 214.134C18.1027 188.353 30.6204 159.538 57.4492 150.899L63.3664 148.994C69.8973 146.891 76.2058 141.467 76.7486 134.627L78.0662 118.024C80.205 91.0738 104.797 75.6094 130.663 83.4728L139.034 86.0177C147.103 89.1664 153.425 86.4849 157.828 81.6881L166.881 70.139Z" fill="url(#paint7_radial_204_205)"/>
    <path d="M166.881 70.139C186.167 48.43 212.389 51.8851 229.168 70.139L239.4 81.9861C242.943 85.8408 248.07 87.8397 253.288 87.4004L271.479 81.9861C296.276 76.6704 318.809 95.1694 318.809 123.902V134.726C319.335 140.634 324.496 144.64 329.826 147.243L346.262 154.11C370.037 165.721 375.979 193.273 358.66 216.397L353.74 222.891C349.327 228.857 350.234 236.687 354.626 242.669L359.546 249.557C377.454 271.598 367.357 301.838 342.06 312.403L327.911 318.312C322.582 320.538 320.494 324.359 319.498 330.047L318.514 348.546C315.07 373.933 292.522 385.4 274.431 382.838L252.882 377.082C247.706 376.349 241.271 378.066 237.827 383.478L230.053 394.105C210.767 415.851 184.737 412.235 171.604 399.517L157.264 382.149C153.51 378.513 148.776 375.409 143.11 377.547L121.421 383.478C103.515 386.013 82.4303 372.248 79.0555 354.481L76.5511 328.768C75.5345 323.416 72.0054 318.88 67.0678 316.579L51.8532 311.351C28.9739 300.69 21.3108 274.878 34.4475 253.324L43.0229 241.465C46.4673 235.814 46.3036 228.674 42.6037 223.186L36.2077 214.134C18.1027 188.353 30.6204 159.538 57.4492 150.899L63.3664 148.994C69.8973 146.891 76.2058 141.467 76.7486 134.627L78.0662 118.024C80.205 91.0738 104.797 75.6094 130.663 83.4728L139.034 86.0177C147.103 89.1664 153.425 86.4849 157.828 81.6881L166.881 70.139Z" fill="url(#paint8_radial_204_205)"/>
    <path d="M166.881 70.139C186.167 48.43 212.389 51.8851 229.168 70.139L239.4 81.9861C242.943 85.8408 248.07 87.8397 253.288 87.4004L271.479 81.9861C296.276 76.6704 318.809 95.1694 318.809 123.902V134.726C319.335 140.634 324.496 144.64 329.826 147.243L346.262 154.11C370.037 165.721 375.979 193.273 358.66 216.397L353.74 222.891C349.327 228.857 350.234 236.687 354.626 242.669L359.546 249.557C377.454 271.598 367.357 301.838 342.06 312.403L327.911 318.312C322.582 320.538 320.494 324.359 319.498 330.047L318.514 348.546C315.07 373.933 292.522 385.4 274.431 382.838L252.882 377.082C247.706 376.349 241.271 378.066 237.827 383.478L230.053 394.105C210.767 415.851 184.737 412.235 171.604 399.517L157.264 382.149C153.51 378.513 148.776 375.409 143.11 377.547L121.421 383.478C103.515 386.013 82.4303 372.248 79.0555 354.481L76.5511 328.768C75.5345 323.416 72.0054 318.88 67.0678 316.579L51.8532 311.351C28.9739 300.69 21.3108 274.878 34.4475 253.324L43.0229 241.465C46.4673 235.814 46.3036 228.674 42.6037 223.186L36.2077 214.134C18.1027 188.353 30.6204 159.538 57.4492 150.899L63.3664 148.994C69.8973 146.891 76.2058 141.467 76.7486 134.627L78.0662 118.024C80.205 91.0738 104.797 75.6094 130.663 83.4728L139.034 86.0177C147.103 89.1664 153.425 86.4849 157.828 81.6881L166.881 70.139Z" fill="url(#paint9_radial_204_205)"/>
    <g filter="url(#filter0_d_204_205)">
        <path d="M198.165 367.42C272.893 367.42 333.473 306.841 333.473 232.112C333.473 157.384 272.893 96.8043 198.165 96.8043C123.436 96.8043 62.8568 157.384 62.8568 232.112C62.8568 306.841 123.436 367.42 198.165 367.42Z" fill="url(#paint10_radial_204_205)"/>
        <path d="M198.165 367.42C272.893 367.42 333.473 306.841 333.473 232.112C333.473 157.384 272.893 96.8043 198.165 96.8043C123.436 96.8043 62.8568 157.384 62.8568 232.112C62.8568 306.841 123.436 367.42 198.165 367.42Z" fill="url(#paint11_radial_204_205)"/>
        <path d="M198.165 367.42C272.893 367.42 333.473 306.841 333.473 232.112C333.473 157.384 272.893 96.8043 198.165 96.8043C123.436 96.8043 62.8568 157.384 62.8568 232.112C62.8568 306.841 123.436 367.42 198.165 367.42Z" fill="url(#paint12_radial_204_205)"/>
    </g>
    <path d="M230.021 342.487C253.09 342.487 271.791 323.786 271.791 300.717C271.791 277.648 253.09 258.947 230.021 258.947C206.952 258.947 188.251 277.648 188.251 300.717C188.251 323.786 206.952 342.487 230.021 342.487Z" fill="url(#paint13_radial_204_205)"/>
    <path d="M230.021 342.487C253.09 342.487 271.791 323.786 271.791 300.717C271.791 277.648 253.09 258.947 230.021 258.947C206.952 258.947 188.251 277.648 188.251 300.717C188.251 323.786 206.952 342.487 230.021 342.487Z" fill="url(#paint14_radial_204_205)"/>
    <g filter="url(#filter1_i_204_205)">
        <path d="M385.421 258.897C348.644 223.052 289.801 223.674 253.956 260.451C243.579 271.033 236.361 283.45 231.999 296.69C231.945 296.852 231.748 296.915 231.611 296.813C227.645 293.897 223.288 291.381 218.733 289.458C210.238 285.521 200.811 283.345 190.866 283.345C153.882 283.345 123.942 313.285 123.942 350.269C123.942 366.016 129.433 380.519 138.549 392.018C150.877 408.179 170.25 418.539 192.109 418.539C218.423 418.539 294.049 418.539 323.574 418.539C352.788 418.539 378.584 404.139 394.331 382.073C422.509 345.193 419.505 292.151 385.421 258.897Z" fill="#D5D4DA"/>
        <path d="M385.421 258.897C348.644 223.052 289.801 223.674 253.956 260.451C243.579 271.033 236.361 283.45 231.999 296.69C231.945 296.852 231.748 296.915 231.611 296.813C227.645 293.897 223.288 291.381 218.733 289.458C210.238 285.521 200.811 283.345 190.866 283.345C153.882 283.345 123.942 313.285 123.942 350.269C123.942 366.016 129.433 380.519 138.549 392.018C150.877 408.179 170.25 418.539 192.109 418.539C218.423 418.539 294.049 418.539 323.574 418.539C352.788 418.539 378.584 404.139 394.331 382.073C422.509 345.193 419.505 292.151 385.421 258.897Z" fill="url(#paint15_linear_204_205)"/>
    </g>
    <path d="M385.421 258.897C348.644 223.052 289.801 223.674 253.956 260.451C243.579 271.033 236.361 283.45 231.999 296.69C231.945 296.852 231.748 296.915 231.611 296.813C227.645 293.897 223.288 291.381 218.733 289.458C210.238 285.521 200.811 283.345 190.866 283.345C153.882 283.345 123.942 313.285 123.942 350.269C123.942 366.016 129.433 380.519 138.549 392.018C150.877 408.179 170.25 418.539 192.109 418.539C218.423 418.539 294.049 418.539 323.574 418.539C352.788 418.539 378.584 404.139 394.331 382.073C422.509 345.193 419.505 292.151 385.421 258.897Z" fill="url(#paint16_radial_204_205)"/>
    <path d="M385.421 258.897C348.644 223.052 289.801 223.674 253.956 260.451C243.579 271.033 236.361 283.45 231.999 296.69C231.945 296.852 231.748 296.915 231.611 296.813C227.645 293.897 223.288 291.381 218.733 289.458C210.238 285.521 200.811 283.345 190.866 283.345C153.882 283.345 123.942 313.285 123.942 350.269C123.942 366.016 129.433 380.519 138.549 392.018C150.877 408.179 170.25 418.539 192.109 418.539C218.423 418.539 294.049 418.539 323.574 418.539C352.788 418.539 378.584 404.139 394.331 382.073C422.509 345.193 419.505 292.151 385.421 258.897Z" fill="url(#paint17_radial_204_205)"/>
    <path d="M385.421 258.897C348.644 223.052 289.801 223.674 253.956 260.451C243.579 271.033 236.361 283.45 231.999 296.69C231.945 296.852 231.748 296.915 231.611 296.813C227.645 293.897 223.288 291.381 218.733 289.458C210.238 285.521 200.811 283.345 190.866 283.345C153.882 283.345 123.942 313.285 123.942 350.269C123.942 366.016 129.433 380.519 138.549 392.018C150.877 408.179 170.25 418.539 192.109 418.539C218.423 418.539 294.049 418.539 323.574 418.539C352.788 418.539 378.584 404.139 394.331 382.073C422.509 345.193 419.505 292.151 385.421 258.897Z" fill="url(#paint18_radial_204_205)"/>
    <path d="M385.421 258.897C348.644 223.052 289.801 223.674 253.956 260.451C243.579 271.033 236.361 283.45 231.999 296.69C231.945 296.852 231.748 296.915 231.611 296.813C227.645 293.897 223.288 291.381 218.733 289.458C210.238 285.521 200.811 283.345 190.866 283.345C153.882 283.345 123.942 313.285 123.942 350.269C123.942 366.016 129.433 380.519 138.549 392.018C150.877 408.179 170.25 418.539 192.109 418.539C218.423 418.539 294.049 418.539 323.574 418.539C352.788 418.539 378.584 404.139 394.331 382.073C422.509 345.193 419.505 292.151 385.421 258.897Z" fill="url(#paint19_radial_204_205)"/>
    <defs>
        <filter id="filter0_d_204_205" x="62.2568" y="96.8043" width="271.216" height="271.216" filterUnits="userSpaceOnUse" color-interpolation-filters="sRGB">
            <feFlood flood-opacity="0" result="BackgroundImageFix"/>
            <feColorMatrix in="SourceAlpha" type="matrix" values="0 0 0 0 0 0 0 0 0 0 0 0 0 0 0 0 0 0 127 0" result="hardAlpha"/>
            <feOffset dx="-0.3" dy="0.3"/>
            <feGaussianBlur stdDeviation="0.15"/>
            <feComposite in2="hardAlpha" operator="out"/>
            <feColorMatrix type="matrix" values="0 0 0 0 0.921569 0 0 0 0 0.47451 0 0 0 0 0.133333 0 0 0 1 0"/>
            <feBlend mode="normal" in2="BackgroundImageFix" result="effect1_dropShadow_204_205"/>
            <feBlend mode="normal" in="SourceGraphic" in2="effect1_dropShadow_204_205" result="shape"/>
        </filter>
        <filter id="filter1_i_204_205" x="123.942" y="231.435" width="289.496" height="187.104" filterUnits="userSpaceOnUse" color-interpolation-filters="sRGB">
            <feFlood flood-opacity="0" result="BackgroundImageFix"/>
            <feBlend mode="normal" in="SourceGraphic" in2="BackgroundImageFix" result="shape"/>
            <feColorMatrix in="SourceAlpha" type="matrix" values="0 0 0 0 0 0 0 0 0 0 0 0 0 0 0 0 0 0 127 0" result="hardAlpha"/>
            <feOffset dy="-1"/>
            <feGaussianBlur stdDeviation="1"/>
            <feComposite in2="hardAlpha" operator="arithmetic" k2="-1" k3="1"/>
            <feColorMatrix type="matrix" values="0 0 0 0 0.815686 0 0 0 0 0.784314 0 0 0 0 0.956863 0 0 0 1 0"/>
            <feBlend mode="normal" in2="shape" result="effect1_innerShadow_204_205"/>
        </filter>
        <linearGradient id="paint0_linear_204_205" x1="303.254" y1="114.674" x2="109.921" y2="361.341" gradientUnits="userSpaceOnUse">
            <stop stop-color="#FC8B23"/>
            <stop offset="1" stop-color="#E67639"/>
        </linearGradient>
        <radialGradient id="paint1_radial_204_205" cx="0" cy="0" r="1" gradientUnits="userSpaceOnUse" gradientTransform="translate(230.715 71.4787) rotate(138.155) scale(47.5921 41.991)">
            <stop offset="0.300161" stop-color="#FFA13A"/>
            <stop offset="1" stop-color="#FFA13A" stop-opacity="0"/>
        </radialGradient>
        <radialGradient id="paint2_radial_204_205" cx="0" cy="0" r="1" gradientUnits="userSpaceOnUse" gradientTransform="translate(106.892 56.4545) rotate(67.8105) scale(75.6604 66.7558)">
            <stop offset="0.300161" stop-color="#FF942A"/>
            <stop offset="1" stop-color="#FF942A" stop-opacity="0"/>
        </radialGradient>
        <radialGradient id="paint3_radial_204_205" cx="0" cy="0" r="1" gradientUnits="userSpaceOnUse" gradientTransform="translate(310.09 127.041) rotate(-164.745) scale(30.1668 41.7698)">
            <stop offset="0.300161" stop-color="#FFA13D"/>
            <stop offset="1" stop-color="#FFA13D" stop-opacity="0"/>
        </radialGradient>
        <radialGradient id="paint4_radial_204_205" cx="0" cy="0" r="1" gradientUnits="userSpaceOnUse" gradientTransform="translate(370.943 170.961) rotate(154.195) scale(53.4872 39.5042)">
            <stop offset="0.300161" stop-color="#FFA13D"/>
            <stop offset="1" stop-color="#FFA13D" stop-opacity="0"/>
        </radialGradient>
        <radialGradient id="paint5_radial_204_205" cx="0" cy="0" r="1" gradientUnits="userSpaceOnUse" gradientTransform="translate(382.584 261.447) rotate(-173.379) scale(59.6639 33.6227)">
            <stop offset="0.300161" stop-color="#FFA13D"/>
            <stop offset="1" stop-color="#FFA13D" stop-opacity="0"/>
        </radialGradient>
        <radialGradient id="paint6_radial_204_205" cx="0" cy="0" r="1" gradientUnits="userSpaceOnUse" gradientTransform="translate(329.139 330.767) rotate(-43.9639) scale(54.12 52.1383)">
            <stop stop-color="#E0762A"/>
            <stop offset="1" stop-color="#E0762A" stop-opacity="0"/>
        </radialGradient>
        <radialGradient id="paint7_radial_204_205" cx="0" cy="0" r="1" gradientUnits="userSpaceOnUse" gradientTransform="translate(78.317 318.068) rotate(-127.747) scale(41.4911 39.9718)">
            <stop stop-color="#E0762A"/>
            <stop offset="1" stop-color="#E0762A" stop-opacity="0"/>
        </radialGradient>
        <radialGradient id="paint8_radial_204_205" cx="0" cy="0" r="1" gradientUnits="userSpaceOnUse" gradientTransform="translate(21.6968 177.84) rotate(25.2777) scale(42.134 50.9249)">
            <stop stop-color="#F0851D"/>
            <stop offset="1" stop-color="#F0851D" stop-opacity="0"/>
        </radialGradient>
        <radialGradient id="paint9_radial_204_205" cx="0" cy="0" r="1" gradientUnits="userSpaceOnUse" gradientTransform="translate(273.202 390.858) rotate(-142.487) scale(49.1237 46.344)">
            <stop offset="0.336586" stop-color="#E3745B"/>
            <stop offset="1" stop-color="#E3745B" stop-opacity="0"/>
        </radialGradient>
        <radialGradient id="paint10_radial_204_205" cx="0" cy="0" r="1" gradientUnits="userSpaceOnUse" gradientTransform="translate(274.95 153.723) rotate(117.739) scale(241.446 298.162)">
            <stop offset="0.17178" stop-color="#FFD13D"/>
            <stop offset="1" stop-color="#DCA21C"/>
            <stop offset="1" stop-color="#D89A29"/>
        </radialGradient>
        <radialGradient id="paint11_radial_204_205" cx="0" cy="0" r="1" gradientUnits="userSpaceOnUse" gradientTransform="translate(150.073 310.017) rotate(-140.631) scale(84.2278 71.1127)">
            <stop offset="0.340699" stop-color="#DCA225"/>
            <stop offset="1" stop-color="#DCA225" stop-opacity="0"/>
        </radialGradient>
        <radialGradient id="paint12_radial_204_205" cx="0" cy="0" r="1" gradientUnits="userSpaceOnUse" gradientTransform="translate(308.685 209.006) rotate(168.299) scale(288.149 243.282)">
            <stop offset="0.620449" stop-color="#DCA225" stop-opacity="0"/>
            <stop offset="1" stop-color="#DCA225"/>
        </radialGradient>
        <radialGradient id="paint13_radial_204_205" cx="0" cy="0" r="1" gradientUnits="userSpaceOnUse" gradientTransform="translate(245.08 285.22) rotate(-172.463) scale(57.3249 57.3249)">
            <stop offset="0.308752" stop-color="#E8E8E9"/>
            <stop offset="1" stop-color="#D2D2D2"/>
        </radialGradient>
        <radialGradient id="paint14_radial_204_205" cx="0" cy="0" r="1" gradientUnits="userSpaceOnUse" gradientTransform="translate(234.485 297.183) rotate(-141.242) scale(31.1197 28.5129)">
            <stop stop-color="#CDCDCE"/>
            <stop offset="1" stop-color="#CDCDCE" stop-opacity="0"/>
        </radialGradient>
        <linearGradient id="paint15_linear_204_205" x1="298.264" y1="408.532" x2="298.264" y2="330.855" gradientUnits="userSpaceOnUse">
            <stop stop-color="#DED7FA"/>
            <stop offset="1" stop-color="#DED7FA" stop-opacity="0"/>
        </linearGradient>
        <radialGradient id="paint16_radial_204_205" cx="0" cy="0" r="1" gradientUnits="userSpaceOnUse" gradientTransform="translate(375.941 295.004) rotate(136.5) scale(115.323 123.707)">
            <stop offset="0.178875" stop-color="#FCFBFE"/>
            <stop offset="1" stop-color="#FCFBFE" stop-opacity="0"/>
        </radialGradient>
        <radialGradient id="paint17_radial_204_205" cx="0" cy="0" r="1" gradientUnits="userSpaceOnUse" gradientTransform="translate(192.787 339.223) rotate(144.444) scale(70.7501 74.1354)">
            <stop stop-color="#FCFBFE"/>
            <stop offset="1" stop-color="#FCFBFE" stop-opacity="0"/>
        </radialGradient>
        <radialGradient id="paint18_radial_204_205" cx="0" cy="0" r="1" gradientUnits="userSpaceOnUse" gradientTransform="translate(363.948 319.971) rotate(166.654) scale(246.668 194.259)">
            <stop offset="0.815422" stop-color="#CECCD7" stop-opacity="0"/>
            <stop offset="1" stop-color="#CECCD7"/>
        </radialGradient>
        <radialGradient id="paint19_radial_204_205" cx="0" cy="0" r="1" gradientUnits="userSpaceOnUse" gradientTransform="translate(161.621 429.066) rotate(-46.7899) scale(66.8267 92.2226)">
            <stop stop-color="#D0C9EE"/>
            <stop offset="1" stop-color="#D0C9EE" stop-opacity="0"/>
        </radialGradient>
    </defs>
</svg>
