<svg width="411" height="411" viewBox="0 0 411 411" fill="none" xmlns="http://www.w3.org/2000/svg">
    <g clip-path="url(#clip0_15_945)">
        <path d="M25.6875 173.391C25.6875 174.024 25.6945 174.655 25.7086 175.285C25.6945 175.882 25.6875 176.481 25.6875 177.081C25.6875 208.884 45.4621 236.341 74.0758 249.162C84.7454 254.112 96.636 256.875 109.172 256.875L109.826 256.873L110.505 256.875H142.97L198.244 173.963C208.113 159.16 231.187 166.146 231.187 183.936L231.188 244.031H241.293C249.835 244.031 256.372 249.721 258.534 256.875H269.719C330.004 256.875 385.312 205.5 385.312 141.281C385.312 132.835 384.224 124.91 382.173 117.539C371.377 65.1095 324.959 25.6875 269.333 25.6875C236.391 25.6875 206.678 39.5138 185.68 61.68C177.024 55.2077 166.279 51.375 154.639 51.375C130.552 51.375 110.299 67.7865 104.451 90.0375C60.5401 92.4855 25.6875 128.868 25.6875 173.391Z" fill="#FFD13D" fill-opacity="0.75"/>
        <path d="M221.48 256.471C221.744 256.582 222.018 256.672 222.302 256.739C222.68 256.828 223.075 256.875 223.481 256.875H241.292C245.304 256.875 247.768 261.268 245.676 264.691L189.333 356.889C186.627 361.316 179.812 359.398 179.812 354.21L179.811 287.7C179.811 284.862 177.511 282.562 174.673 282.562H150.88C146.777 282.562 144.329 277.989 146.605 274.575L208.93 181.087C210.059 179.393 211.794 178.698 213.467 178.799C213.595 178.807 213.722 178.819 213.848 178.836C216.208 179.151 218.343 181.044 218.343 183.937L218.344 251.738C218.344 253.865 219.637 255.69 221.48 256.471Z" fill="#FFD13D" fill-opacity="0.75"/>
    </g>
    <path d="M150.002 161.003C180.931 161.003 206.003 135.93 206.003 105.002C206.003 74.0728 180.931 49 150.002 49C119.073 49 94 74.0728 94 105.002C94 135.93 119.073 161.003 150.002 161.003Z" fill="url(#paint0_radial_15_945)"/>
    <path d="M150.002 161.003C180.931 161.003 206.003 135.93 206.003 105.002C206.003 74.0728 180.931 49 150.002 49C119.073 49 94 74.0728 94 105.002C94 135.93 119.073 161.003 150.002 161.003Z" fill="url(#paint1_radial_15_945)"/>
    <path d="M361.872 50.4077C312.662 2.44591 233.927 3.27764 185.966 52.487C172.051 66.6766 162.382 83.3307 156.548 101.089C156.495 101.251 156.298 101.314 156.16 101.212C150.829 97.2802 144.966 93.8885 138.835 91.3C127.469 86.0325 114.855 83.1216 101.547 83.1216C52.0606 83.1216 12 123.182 12 172.669C12 193.739 19.3468 213.145 31.5451 228.532C48.0407 250.156 73.9622 264.018 103.211 264.018C138.42 264.018 239.611 264.018 279.117 264.018C318.207 264.018 352.723 244.75 373.793 215.224C411.497 165.876 407.338 94.9041 361.872 50.4077Z" fill="#9B9B9C"/>
    <path d="M361.872 50.4077C312.662 2.44591 233.927 3.27764 185.966 52.487C172.051 66.6766 162.382 83.3307 156.548 101.089C156.495 101.251 156.298 101.314 156.16 101.212C150.829 97.2802 144.966 93.8885 138.835 91.3C127.469 86.0325 114.855 83.1216 101.547 83.1216C52.0606 83.1216 12 123.182 12 172.669C12 193.739 19.3468 213.145 31.5451 228.532C48.0407 250.156 73.9622 264.018 103.211 264.018C138.42 264.018 239.611 264.018 279.117 264.018C318.207 264.018 352.723 244.75 373.793 215.224C411.497 165.876 407.338 94.9041 361.872 50.4077Z" fill="url(#paint2_radial_15_945)"/>
    <path d="M361.872 50.4077C312.662 2.44591 233.927 3.27764 185.966 52.487C172.051 66.6766 162.382 83.3307 156.548 101.089C156.495 101.251 156.298 101.314 156.16 101.212C150.829 97.2802 144.966 93.8885 138.835 91.3C127.469 86.0325 114.855 83.1216 101.547 83.1216C52.0606 83.1216 12 123.182 12 172.669C12 193.739 19.3468 213.145 31.5451 228.532C48.0407 250.156 73.9622 264.018 103.211 264.018C138.42 264.018 239.611 264.018 279.117 264.018C318.207 264.018 352.723 244.75 373.793 215.224C411.497 165.876 407.338 94.9041 361.872 50.4077Z" fill="url(#paint3_radial_15_945)"/>
    <path d="M361.872 50.4077C312.662 2.44591 233.927 3.27764 185.966 52.487C172.051 66.6766 162.382 83.3307 156.548 101.089C156.495 101.251 156.298 101.314 156.16 101.212C150.829 97.2802 144.966 93.8885 138.835 91.3C127.469 86.0325 114.855 83.1216 101.547 83.1216C52.0606 83.1216 12 123.182 12 172.669C12 193.739 19.3468 213.145 31.5451 228.532C48.0407 250.156 73.9622 264.018 103.211 264.018C138.42 264.018 239.611 264.018 279.117 264.018C318.207 264.018 352.723 244.75 373.793 215.224C411.497 165.876 407.338 94.9041 361.872 50.4077Z" fill="url(#paint4_radial_15_945)"/>
    <path d="M361.872 50.4077C312.662 2.44591 233.927 3.27764 185.966 52.487C172.051 66.6766 162.382 83.3307 156.548 101.089C156.495 101.251 156.298 101.314 156.16 101.212C150.829 97.2802 144.966 93.8885 138.835 91.3C127.469 86.0325 114.855 83.1216 101.547 83.1216C52.0606 83.1216 12 123.182 12 172.669C12 193.739 19.3468 213.145 31.5451 228.532C48.0407 250.156 73.9622 264.018 103.211 264.018C138.42 264.018 239.611 264.018 279.117 264.018C318.207 264.018 352.723 244.75 373.793 215.224C411.497 165.876 407.338 94.9041 361.872 50.4077Z" fill="url(#paint5_radial_15_945)"/>
    <defs>
        <radialGradient id="paint0_radial_15_945" cx="0" cy="0" r="1" gradientUnits="userSpaceOnUse" gradientTransform="translate(146.176 95.4352) rotate(-110.468) scale(49.5642 48.1397)">
            <stop stop-color="#C3C3C3"/>
            <stop offset="0.30655" stop-color="#D8D8D8"/>
            <stop offset="1" stop-color="#EEEEEE"/>
        </radialGradient>
        <radialGradient id="paint1_radial_15_945" cx="0" cy="0" r="1" gradientUnits="userSpaceOnUse" gradientTransform="translate(167.192 82.9833) rotate(-148.811) scale(20.0949 66.8224)">
            <stop offset="0.401187" stop-color="#BBB8B8"/>
            <stop offset="1" stop-color="#CECECE" stop-opacity="0"/>
        </radialGradient>
        <radialGradient id="paint2_radial_15_945" cx="0" cy="0" r="1" gradientUnits="userSpaceOnUse" gradientTransform="translate(211.844 171.559) rotate(-106.955) scale(180.093 101.184)">
            <stop stop-color="#EEEEEE"/>
            <stop offset="1" stop-color="white" stop-opacity="0"/>
        </radialGradient>
        <radialGradient id="paint3_radial_15_945" cx="0" cy="0" r="1" gradientUnits="userSpaceOnUse" gradientTransform="translate(376.756 86.4775) rotate(147.006) scale(167.817 187.453)">
            <stop offset="0.189911" stop-color="#E7E7E7"/>
            <stop offset="1" stop-color="white" stop-opacity="0"/>
        </radialGradient>
        <radialGradient id="paint4_radial_15_945" cx="0" cy="0" r="1" gradientUnits="userSpaceOnUse" gradientTransform="translate(109.956 131.644) rotate(147.319) scale(132.283 161.197)">
            <stop stop-color="white"/>
            <stop offset="0.695905" stop-color="white" stop-opacity="0"/>
        </radialGradient>
        <radialGradient id="paint5_radial_15_945" cx="0" cy="0" r="1" gradientUnits="userSpaceOnUse" gradientTransform="translate(140.417 75.9735) rotate(71.9061) scale(111.609 41.6085)">
            <stop stop-color="white"/>
            <stop offset="1" stop-color="white" stop-opacity="0"/>
        </radialGradient>
        <clipPath id="clip0_15_945">
            <rect width="411" height="411" fill="white"/>
        </clipPath>
    </defs>
</svg>
